<svg width="575" height="523" viewBox="0 0 575 523" fill="none" xmlns="http://www.w3.org/2000/svg">
<path d="M339.012 80.8143C363.485 105.326 381.049 124.502 399.654 155.489C426.874 200.802 449.57 240.71 460.822 292.832C462.265 299.529 464.914 306.06 465.678 312.966C468.73 316.565 470.27 312.966 471.921 312.23C484.962 306.366 504.19 301.781 518.411 303.198C527.97 304.143 545.145 309.965 552.387 316.385C553.733 317.58 553.788 319.692 555.106 320.651C555.911 321.234 557.312 321.067 557.714 321.457C558.158 321.901 563.805 330.447 564.651 331.878C566.663 335.241 573.613 350.72 574.363 354.097C575.112 357.474 574.21 361.559 574.515 365.061C575.098 371.883 575.223 371.883 574.515 378.901C569.951 423.727 569.798 461.968 526.027 487.272C478.705 514.632 430.231 519.843 386.155 483.617C360.711 452.116 347.739 408.47 351.291 367.784C352.012 359.475 354.967 355.125 358.033 348.15C359.282 345.315 360.253 340.41 361.682 337.909C363.291 335.102 367.495 333.907 369.409 331.739C370.547 330.461 370.575 328.724 370.908 328.39C371.393 327.904 381.174 322.249 382.7 321.457C387.694 318.9 399.348 314.953 404.731 315.69C411.626 316.635 418.577 317.496 425.528 318.469C432.478 319.442 438.999 324.875 446.99 322.665C443.286 306.31 440.095 289.414 434.254 273.614C411.502 212.182 377.637 164.021 333.089 117.248L330.716 116.901L330.341 114.511L327.969 114.164C315.677 98.406 296.338 86.4698 283.435 71.9212L276.457 67.0995C274.751 70.49 275.652 74.1028 275.097 77.5489C274.862 79.0357 273.918 80.1612 273.654 81.6619C268.355 112.218 266.385 137.438 252.705 166.23C245.339 181.737 241.773 191.853 235.988 207.819C223.571 242.141 205.896 274.795 190.483 308.061L198.086 311.591C201.082 312.883 207.505 310.076 208.976 310.326C209.781 310.465 210.697 311.563 211.973 311.577C226.956 311.799 237.542 311.966 249.958 321.484L250.264 323.86C256.632 327.473 262.778 333.365 268.161 338.673C268.84 339.34 270.325 339.118 270.727 339.521C271.102 339.896 270.921 341.313 271.573 342.091C279.565 351.749 282.686 363.782 284.795 376.121C285.225 378.664 284.393 381.86 284.739 384.5C285.058 386.877 286.765 390.225 287.07 392.866C288.041 401.175 280.216 423.394 276.263 431.523C267.564 449.392 244.839 482.908 229.301 494.205C224.903 497.401 218.216 500.319 213.554 503.432C200.499 512.117 199.861 515.993 182.839 518.495C143.743 524.233 98.5986 527.388 61.5147 509.532C48.5985 503.321 27.5247 487.369 18.5346 476.197C13.4847 469.916 4.35593 454.77 3.28767 447.016C2.15004 438.79 1.47024 430.217 0.512969 422.018C-1.27671 406.65 1.84476 394.199 6.33977 379.178C8.68439 371.327 11.8476 362.087 15.0524 354.57C34.2117 309.701 88.1242 269.696 138.249 285.426C149.861 289.066 152.136 293.971 160.682 300.447C161.889 301.364 162.014 302.364 164.151 301.836C163.873 298.501 167.286 297.153 168.993 294.874C185.613 272.6 195.921 243.28 206.493 217.157C218.063 188.574 229.217 156.684 238.804 127.309C246.337 104.242 246.199 94.3346 244.534 70.6011C244.062 63.8757 246.393 52.8149 240.4 48.3544C235.253 44.5193 227.248 44.0885 221.865 40.5313C219.062 38.6832 217.689 35.4455 214.234 34.987C211.501 28.9424 201.276 13.3795 205.008 7.33492C206.049 5.65357 211.501 0.637291 213.333 0.387172C220.45 -0.599408 233.019 0.26211 239.526 3.40249C247.475 7.23765 253.344 15.5194 259.837 20.5495C278.968 35.3482 303.052 46.9649 322.198 62.2499C328.899 67.5997 333.754 75.534 339.026 80.8143H339.012ZM97.6968 368.604C98.0158 368.298 100.222 368.701 101.79 367.854C103.607 366.867 107.006 363.282 109.559 361.753C115.538 358.182 122.697 356.682 128.593 353.041C131.104 351.499 137.209 347.413 136.404 344.203C135.71 341.397 133.976 342.995 132.727 343.286C126.151 344.857 119.797 347.024 113.318 348.845C109.045 350.04 103.01 350.54 98.5015 352.054C96.1292 352.846 93.2018 355.375 91.1763 355.82C87.9992 356.515 84.2812 355.653 81.0209 356.056C78.9677 362.198 73.9316 367.381 71.476 373.579C70.7684 375.357 69.2978 379.873 68.7013 381.916C67.9521 384.5 64.775 398.09 65.7184 399.063C70.7823 400.161 70.3938 396.659 72.6135 394.158C80.0081 385.834 89.456 379.873 96.2818 372.022C97.4888 370.633 97.5719 368.757 97.7245 368.604H97.6968ZM423.405 346.274C419.354 346.343 414.151 345.496 410.891 348.317C410.461 348.692 406.035 355.917 405.591 356.904C404.273 359.891 402.747 365.63 403.94 368.396L401.18 369.201C403.011 374.454 401.596 377.316 401.18 381.666C400.902 384.584 401.415 387.766 401.207 390.726L411.099 370.772C414.138 365.825 417.772 360.197 420.436 355.125C421.879 352.374 423.766 349.609 423.391 346.288L423.405 346.274Z" fill="#AAC2FF"/>
</svg>
