<svg width="463" height="632" viewBox="0 0 463 632" fill="none" xmlns="http://www.w3.org/2000/svg">
<path d="M386.272 237.515L385.974 239.294L387.635 240.069C387.749 242.616 387.903 244.222 386.608 246.613C382.076 254.948 372.263 263.429 367.2 271.812C355.138 286.543 339.493 297.569 325.335 309.84C303.253 328.983 281.87 348.888 259.862 368.109C252.965 374.139 243.762 379.734 238.018 386.956C234.187 391.777 234.487 395.01 232.26 399.962C230.844 403.104 228.498 406.549 226.758 410.256C219.13 426.488 212.733 444.76 206.832 461.898C201.296 477.969 196.296 493.741 194.485 510.581C191.619 537.092 208.432 549.445 219.292 570.049C221.78 574.773 223.357 580.52 227.694 584.403L227.367 586.172C230.907 589.568 233.286 594.63 238.162 596.427C238.027 598.829 238.517 603.109 235.82 603.887C232.881 603.096 232.702 606.558 230.272 607.564C225.586 609.513 222.184 607.192 218.018 606.325C189.711 600.444 160.069 588.849 132.199 579.83C130.081 579.149 128.261 578.598 126.275 577.949C114.379 574.094 102.422 570.428 90.5907 566.408L86.1326 557.948L88.1127 555.405C90.4788 554.29 92.5777 553.802 94.9686 552.542C102.217 548.73 111.845 544.752 119.256 540.126C131.332 532.592 156.417 510.489 162.367 498.081C163.21 496.312 163.317 494.066 164.357 492.263C165.268 490.691 167.881 489.798 168.463 488.944C171.06 485.162 173.156 474.268 175.001 469.445C176.847 464.622 181.777 456.415 182.462 452.095C184.974 436.456 190.938 421.477 192.714 405.36C194.683 387.551 184.821 370.294 183.576 353.163L181.864 352.448C182.234 342.655 176.401 333.83 175.293 324.232L173.636 323.48C172.904 319.44 171.861 314.489 170.495 310.542C166.812 299.875 161.496 289.407 160.232 278.859L158.559 278.124C159.873 275.126 157.372 272.118 157.047 269.306C155.839 258.721 147.304 246.145 144.898 234.473L143.268 233.708C142.504 226.556 138.665 220.301 135.765 213.854C134.018 209.971 133.924 206.948 132.672 203.026C131.648 199.824 128.331 194.713 127.559 191.548C127.198 190.04 127.964 188.751 128.381 187.383L126.079 187.751L126.579 182.506C123.942 181.253 123.28 177.85 121.852 175.396C119.168 170.773 116.34 170.456 121.625 164.49L123.477 164.943L124.434 158.716C128.845 159.606 132.771 158.313 137.159 158.352C139.751 163.263 146.498 162.208 148.551 163.295C149.678 163.887 152.009 166.16 153.173 166.534C154.615 166.997 157.714 165.888 159.119 168.587C160.464 168.087 161.775 167.423 163.009 166.69C164.118 166.037 164.065 164.529 167.001 164.749C170.024 168.285 171.231 169.616 175.906 170.877C180.582 172.137 185.513 173.009 190.117 174.324C206.485 179.012 221.581 184.618 238.497 187.706C248.447 189.521 259.599 193.027 269.921 195.565C307.562 204.806 343.589 217.772 380.303 231.025L386.288 237.531L386.272 237.515ZM312.991 223.665C310.689 224.274 309.801 222.29 307.521 221.875C299.053 220.328 288.115 216.43 279.393 213.968C268.838 210.994 259.444 207.888 249.252 205.392C229.953 200.673 212.027 193.763 193.487 187.774C187.579 185.876 180.273 184.779 174.357 182.428C173.249 181.985 172.704 180.538 171.719 180.463C171.259 180.425 169.812 181.034 170.075 182.128C170.443 183.649 171.469 186.84 170.768 188.205C169.542 190.585 166.139 192.606 166.116 196.194C169.111 196.367 172.746 195.912 175.626 196.136C204.927 198.411 231.866 208.995 260.266 215.509C272.898 218.405 285.907 220.161 298.616 222.303C302.217 222.912 307.292 224.192 310.884 225.17C312.518 225.618 313.848 225.267 313.005 223.659L312.991 223.665ZM174.932 277.946C175.825 276.259 175.464 274.959 175.19 273.249C173.956 265.682 170.618 257.461 169.164 249.79C167.227 239.563 166.346 229.873 163.522 219.504C162.943 217.377 162.314 215.169 161.176 213.246C159.472 213.905 158.97 214.237 158.724 216.164C157.912 222.449 163.326 229.846 159.916 236.294L174.932 277.946ZM332.111 276.898L332.962 273.564L332.314 269.332C332.116 270.903 331.272 271.651 330.323 272.728C325.674 278.01 319.684 282.653 314.832 287.783C297.593 306.025 281.082 324.426 262.878 341.679C257.337 346.938 251.331 351.422 246.076 357.431C244.971 358.687 243.709 359.335 243.53 361.36C247.435 362.527 249.539 358.061 251.977 356.004C273.368 338.021 293.345 318.464 314.564 300.195C321.874 293.904 328.725 287.06 336.226 280.994C337.275 278.821 336.172 279.727 335.203 279.054C334.145 278.319 333.364 277.301 332.097 276.905L332.111 276.898ZM203.324 367.072C203.961 359.558 201.693 351.418 197.143 345.362L201.306 363.551L203.321 367.082L203.324 367.072Z" fill="#AAC2FF"/>
<path d="M236.399 140.851C234.993 141.54 234.586 141.201 232.031 142.836C227.482 145.76 222.665 148.763 219.419 152.994C214.463 151.445 209.766 152.403 205.555 148.572L209.396 139.961L207.675 140.197L201.156 135.077C202.332 131.519 200.998 127.165 197.847 125.122L198.145 123.343L196.52 122.525L196.817 120.745C193.299 118.036 193.105 112.799 187.666 112.137L188.18 108.969L185.986 107.19C186.331 106.117 186.504 104.758 187.105 103.844C187.829 102.75 197.959 98.0986 199.842 96.3354L217.182 80.0326C219.784 76.6803 225.886 67.8301 230.262 68.2488C231.422 68.3586 231.622 69.4096 232.446 69.4767C233.6 69.5733 234.581 67.8164 236.01 68.5935C237.233 69.2605 238.502 71.0826 240.724 71.2042L241.53 72.45C241.171 74.5601 243.035 77.67 243.062 79.1256C243.212 88.4275 242.246 98.0945 244.52 107.41C245.749 112.465 248.796 117.632 249.849 122.926C249.804 125.049 247.351 129.404 246.005 131.273C245.256 132.305 237.013 140.544 236.402 140.841L236.399 140.851Z" fill="#AAC2FF"/>
<path d="M431.256 87.2418L432.014 85.5996L438.081 85.1584L443.47 92.3937C443.734 102.982 439.82 116.361 443.486 126.398C444.542 129.292 448.692 134.715 448.261 137.219C447.683 140.18 445.555 144.617 442.378 145.251C439.906 145.74 432.678 146.926 430.83 148.613C429.761 149.586 429.181 151.252 427.827 152.462C424.128 155.78 419.362 159.139 415.162 161.726C413.756 162.074 409.999 160.823 408.491 160.12C400.491 156.366 401.781 144.939 397.956 138.129C396.584 137.206 394.096 138.293 391.735 137.205C390.437 136.602 384.424 132.126 384.474 130.98C384.629 126.776 391.486 123.464 394.122 120.791C396.383 118.502 398.425 114.4 400.508 112.219C407.283 105.098 415.179 98.9289 422.881 92.7852C425.359 90.8076 427.766 86.7674 431.266 87.245L431.256 87.2418Z" fill="#AAC2FF"/>
<path d="M386.272 237.515L385.974 239.294L387.635 240.069C387.749 242.616 387.903 244.222 386.608 246.613C382.076 254.948 372.263 263.429 367.2 271.812C355.138 286.543 339.493 297.569 325.335 309.84C303.253 328.983 281.87 348.888 259.862 368.109C252.965 374.139 243.762 379.734 238.018 386.956C234.187 391.777 234.487 395.01 232.26 399.962C230.844 403.104 228.498 406.549 226.758 410.256C219.13 426.488 212.733 444.76 206.832 461.898C201.296 477.969 196.296 493.741 194.485 510.581C191.619 537.092 208.432 549.445 219.292 570.049C221.78 574.773 223.357 580.52 227.694 584.403L227.367 586.172C230.907 589.568 233.286 594.63 238.162 596.427C238.027 598.829 238.517 603.109 235.82 603.887C232.881 603.096 232.702 606.558 230.272 607.564C225.586 609.513 222.184 607.192 218.018 606.325C189.711 600.444 160.069 588.849 132.199 579.83C130.081 579.149 128.261 578.598 126.275 577.949C114.379 574.094 102.422 570.428 90.5907 566.408L86.1326 557.948L88.1127 555.405C90.4788 554.29 92.5777 553.802 94.9686 552.542C102.217 548.73 111.845 544.752 119.256 540.126C131.332 532.592 156.417 510.489 162.367 498.081C163.21 496.312 163.317 494.066 164.357 492.263C165.268 490.691 167.881 489.798 168.463 488.944C171.06 485.162 173.156 474.268 175.001 469.445C176.847 464.622 181.777 456.415 182.462 452.095C184.974 436.456 190.938 421.477 192.714 405.36C194.683 387.551 184.821 370.294 183.576 353.163L181.864 352.448C182.234 342.655 176.401 333.83 175.293 324.232L173.636 323.48C172.904 319.44 171.861 314.489 170.495 310.542C166.812 299.875 161.496 289.407 160.232 278.859L158.559 278.124C159.873 275.126 157.372 272.118 157.047 269.306C155.839 258.721 147.304 246.145 144.898 234.473L143.268 233.708C142.504 226.556 138.665 220.301 135.765 213.854C134.018 209.971 133.924 206.948 132.672 203.026C131.648 199.824 128.331 194.713 127.559 191.548C127.198 190.04 127.964 188.751 128.381 187.383L126.079 187.751L126.579 182.506C123.942 181.253 123.28 177.85 121.852 175.396C119.168 170.773 116.34 170.456 121.625 164.49L123.477 164.943L124.434 158.716C128.845 159.606 132.771 158.313 137.159 158.352C139.751 163.263 146.498 162.208 148.551 163.295C149.678 163.887 152.009 166.16 153.173 166.534C154.615 166.997 157.714 165.888 159.119 168.587C160.464 168.087 161.775 167.423 163.009 166.69C164.118 166.037 164.065 164.529 167.001 164.749C170.024 168.285 171.231 169.616 175.906 170.877C180.582 172.137 185.513 173.009 190.117 174.324C206.485 179.012 221.581 184.618 238.497 187.706C248.447 189.521 259.599 193.027 269.921 195.565C307.562 204.806 343.589 217.772 380.303 231.025L386.288 237.531L386.272 237.515ZM312.991 223.665C310.689 224.274 309.801 222.29 307.521 221.875C299.053 220.328 288.115 216.43 279.393 213.968C268.838 210.994 259.444 207.888 249.252 205.392C229.953 200.673 212.027 193.763 193.487 187.774C187.579 185.876 180.273 184.779 174.357 182.428C173.249 181.985 172.704 180.538 171.719 180.463C171.259 180.425 169.812 181.034 170.075 182.128C170.443 183.649 171.469 186.84 170.768 188.205C169.542 190.585 166.139 192.606 166.116 196.194C169.111 196.367 172.746 195.912 175.626 196.136C204.927 198.411 231.866 208.995 260.266 215.509C272.898 218.405 285.907 220.161 298.616 222.303C302.217 222.912 307.292 224.192 310.884 225.17C312.518 225.618 313.848 225.267 313.005 223.659L312.991 223.665ZM174.932 277.946C175.825 276.259 175.464 274.959 175.19 273.249C173.956 265.682 170.618 257.461 169.164 249.79C167.227 239.563 166.346 229.873 163.522 219.504C162.943 217.377 162.314 215.169 161.176 213.246C159.472 213.905 158.97 214.237 158.724 216.164C157.912 222.449 163.326 229.846 159.916 236.294L174.932 277.946ZM332.111 276.898L332.962 273.564L332.314 269.332C332.116 270.903 331.272 271.651 330.323 272.728C325.674 278.01 319.684 282.653 314.832 287.783C297.593 306.025 281.082 324.426 262.878 341.679C257.337 346.938 251.331 351.422 246.076 357.431C244.971 358.687 243.709 359.335 243.53 361.36C247.435 362.527 249.539 358.061 251.977 356.004C273.368 338.021 293.345 318.464 314.564 300.195C321.874 293.904 328.725 287.06 336.226 280.994C337.275 278.821 336.172 279.727 335.203 279.054C334.145 278.319 333.364 277.301 332.097 276.905L332.111 276.898ZM203.324 367.072C203.961 359.558 201.693 351.418 197.143 345.362L201.306 363.551L203.321 367.082L203.324 367.072Z" fill="#AAC2FF"/>
<path d="M236.399 140.851C234.993 141.54 234.586 141.201 232.031 142.836C227.482 145.76 222.665 148.763 219.419 152.994C214.463 151.445 209.766 152.403 205.555 148.572L209.396 139.961L207.675 140.197L201.156 135.077C202.332 131.519 200.998 127.165 197.847 125.122L198.145 123.343L196.52 122.525L196.817 120.745C193.299 118.036 193.105 112.799 187.666 112.137L188.18 108.969L185.986 107.19C186.331 106.117 186.504 104.758 187.105 103.844C187.829 102.75 197.959 98.0986 199.842 96.3354L217.182 80.0326C219.784 76.6803 225.886 67.8301 230.262 68.2488C231.422 68.3586 231.622 69.4096 232.446 69.4767C233.6 69.5733 234.581 67.8164 236.01 68.5935C237.233 69.2605 238.502 71.0826 240.724 71.2042L241.53 72.45C241.171 74.5601 243.035 77.67 243.062 79.1256C243.212 88.4275 242.246 98.0945 244.52 107.41C245.749 112.465 248.796 117.632 249.849 122.926C249.804 125.049 247.351 129.404 246.005 131.273C245.256 132.305 237.013 140.544 236.402 140.841L236.399 140.851Z" fill="#AAC2FF"/>
<path d="M431.256 87.2418L432.014 85.5996L438.081 85.1584L443.47 92.3937C443.734 102.982 439.82 116.361 443.486 126.398C444.542 129.292 448.692 134.715 448.261 137.219C447.683 140.18 445.555 144.617 442.378 145.251C439.906 145.74 432.678 146.926 430.83 148.613C429.761 149.586 429.181 151.252 427.827 152.462C424.128 155.78 419.362 159.139 415.162 161.726C413.756 162.074 409.999 160.823 408.491 160.12C400.491 156.366 401.781 144.939 397.956 138.129C396.584 137.206 394.096 138.293 391.735 137.205C390.437 136.602 384.424 132.126 384.474 130.98C384.629 126.776 391.486 123.464 394.122 120.791C396.383 118.502 398.425 114.4 400.508 112.219C407.283 105.098 415.179 98.9289 422.881 92.7852C425.359 90.8076 427.766 86.7674 431.266 87.245L431.256 87.2418Z" fill="#AAC2FF"/>
</svg>
