<svg width="137" height="170" viewBox="0 0 137 170" fill="none" xmlns="http://www.w3.org/2000/svg">
<path d="M90.7302 10.5213C91.2589 11.0496 93.0077 13.3844 93.5475 14.1677C100.846 24.8075 99.6627 39.1232 96.3833 50.9711C96.2576 51.4292 96.3981 51.9132 96.2724 52.338C95.7067 54.2554 94.0578 55.9548 94.4756 58.1124C96.0247 57.7947 97.4999 57.6247 99.1008 57.7355C111.671 58.6 130.679 65.1908 135.43 78.2948C136.328 80.77 136.938 86.7106 136.606 89.3226C136.517 90.006 135.947 90.8335 135.851 91.5207C135.286 95.5993 135.371 100.498 133.84 104.281C132.731 107.022 130.442 110.362 128.479 112.586C126.908 114.367 118.77 120.917 116.785 121.578C115.239 122.092 113.616 122.605 112.082 123.156C104.624 125.842 93.6289 127.43 85.7833 126.429C84.9108 126.318 83.9976 125.528 83.0215 125.683C82.8551 128.797 84.0568 131.793 84.8073 134.793C86.9517 143.364 89.8207 151.869 93.7952 159.786C94.4016 160.994 96.9712 163.764 96.6606 164.969C96.3907 166.125 95.4183 166.192 94.8305 166.846C94.5236 167.185 94.4164 167.791 94.1243 167.987C93.9727 168.087 90.9706 168.855 90.6009 168.9C89.5952 169.014 88.5896 168.615 88.0091 168.63C82.2155 168.785 76.3961 169.21 70.6395 169.509C65.5114 169.775 61.0156 168.933 55.8727 168.519C54.7155 168.427 52.7892 168.77 51.839 168.49C51.4508 168.375 51.1883 167.629 50.5154 167.78C50.8704 167.182 50.4969 166.48 50.5486 166.184C50.6633 165.534 52.5821 162.896 53.048 162.017C54.623 159.032 56.0649 155.792 57.481 152.785C60.7197 145.902 63.1082 141.439 63.0712 133.637C63.0601 130.984 62.9455 128.646 62.3355 126.06L58.3868 127.467C50.8666 130.149 43.9232 130.751 35.9039 130.504C32.2288 130.389 27.7848 130.046 24.0875 129.388C21.5512 128.937 19.6952 127.186 17.6285 125.875C16.4379 125.121 15.0884 124.497 13.9386 123.654C8.82529 119.897 3.3645 111.626 1.07221 105.493C0.658118 104.388 0.0110917 101.821 0 100.76C0 100.587 0.247704 100.332 0.26619 100.029C0.488025 96.3567 1.74139 94.0661 3.26835 90.8372C8.37423 80.0681 16.5858 71.3235 27.9659 66.7757C31.9811 65.2869 36.2625 64.3078 40.5402 64.3854L40.1261 63.3067L39.4865 63.2365C35.9631 58.2417 33.9591 52.6299 33.0866 46.5379C31.1788 33.1753 35.3752 20.2117 44.4223 10.1075C49.6059 4.31842 56.0724 1.34445 63.6406 0.140079C65.2009 -0.107445 64.8681 0.0255532 66.2102 0.140079C68.8648 0.365437 70.4287 0.184402 73.172 0.938056C79.742 2.74092 85.2399 5.50801 90.0574 10.2922C90.2348 10.4696 90.6341 10.4105 90.7413 10.5176L90.7302 10.5213ZM124.771 78.051C124.933 77.2161 124.66 77.0941 124.216 76.5732C123.14 75.3061 121.51 74.1608 119.968 73.6177C119.768 74.5007 120.308 74.3233 120.892 74.7223C122.345 75.7235 123.392 76.9574 124.771 78.0473V78.051Z" fill="#AAC2FF"/>
</svg>
