<svg width="120" height="32" viewBox="0 0 120 32" fill="none" xmlns="http://www.w3.org/2000/svg">
<g clip-path="url(#clip0_15_3103)">
<path d="M119.807 13.8797C119.798 13.5491 119.773 13.2197 119.747 12.9012L119.326 12.9265L119.746 12.8935L119.74 12.8111C119.644 11.5537 119.411 10.3699 119.163 9.11682L119.157 9.08388C119.113 8.86094 119.069 8.6391 119.026 8.41508C118.981 8.18116 118.939 7.94615 118.897 7.70895C118.704 6.61953 118.505 5.49389 117.969 4.49782C117.171 3.01307 115.516 1.86655 113.428 1.35259C112.141 1.03522 110.791 0.946262 109.472 0.861703C106.231 0.653045 102.972 0.644259 99.725 0.729918C98.2458 0.769453 96.7609 0.766159 95.2916 0.962734C94.0211 1.13186 92.7547 1.45912 91.6266 2.08729C90.6141 2.65066 89.7698 3.46992 89.2176 4.49782C88.7683 5.33355 88.616 6.21321 88.456 7.14447C88.4063 7.43219 88.3545 7.73091 88.2936 8.02413C88.1248 8.83788 87.9714 9.67582 87.8223 10.4863C87.7451 10.9091 87.6666 11.333 87.5871 11.7547C87.3961 12.7628 87.234 13.9489 87.4845 15.1042C87.8434 16.7614 88.9902 17.8475 90.5523 18.0089C91.4928 18.1066 92.3198 17.9935 93.0098 17.6718C93.7085 17.3467 94.3499 16.7548 94.8654 15.9597C95.1448 15.5292 95.3722 14.9252 95.593 14.3388C95.8149 13.7512 96.0446 13.1428 96.3226 12.7211C96.5734 12.3433 96.9918 12.0962 97.472 12.0424C97.9609 11.9875 98.4345 12.1456 98.7757 12.4718C100.35 13.9796 99.1112 17.3028 98.4466 19.0884C98.0271 20.2152 97.3847 21.2596 96.7598 22.2743C96.0931 23.3582 95.4031 24.4794 94.9682 25.7269C94.6932 26.5156 94.4427 27.4379 94.6756 28.3022C94.9064 29.16 95.6083 29.9144 96.6031 30.3724C97.7147 30.8852 99.0031 31.0214 100.337 31.1257C101.24 31.1959 102.423 31.2322 103.614 31.2322C104.444 31.2322 105.278 31.2146 106.024 31.1784C107.462 31.1081 108.861 31.0061 110.193 30.5316C110.273 30.503 110.352 30.4701 110.431 30.4361C110.479 30.4163 110.526 30.3965 110.574 30.3767L110.596 30.3668C111.585 29.9078 112.284 29.1555 112.513 28.3011C112.746 27.4368 112.496 26.5144 112.221 25.7258C111.785 24.4774 111.095 23.3559 110.427 22.2699C109.805 21.2607 109.163 20.2163 108.742 19.0873C108.078 17.3017 106.84 13.9796 108.413 12.4718C108.755 12.1446 109.23 11.9875 109.717 12.0424C110.197 12.0962 110.615 12.3433 110.866 12.7211C111.145 13.1439 111.375 13.7523 111.598 14.3431C111.818 14.9263 112.045 15.5292 112.325 15.9597C112.84 16.7548 113.481 17.3467 114.18 17.6718C114.87 17.9935 115.697 18.1066 116.636 18.0089C117.888 17.8793 118.698 17.3478 119.343 16.2298C119.792 15.4534 119.827 14.565 119.808 13.8786L119.807 13.8797Z" fill="#AAC2FF"/>
<path d="M84.6383 22.095C84.5643 22.0994 84.4903 22.1049 84.4152 22.1093C82.9933 22.2049 81.5405 22.3367 80.1296 22.0709C78.0642 21.6821 75.7913 20.014 77.5189 17.8659C79.4144 15.5092 81.8407 13.9047 82.82 10.9034C83.6235 8.44339 82.9182 5.99442 80.9554 4.30321C80.8693 4.22852 80.7809 4.15605 80.6916 4.08577C77.5056 1.55772 72.7409 0.951518 68.7843 0.686853C64.9349 0.429876 61.0324 0.630846 57.2084 1.09099C56.3439 1.19532 55.4742 1.31612 54.6527 1.60824C53.8326 1.89926 53.0565 2.37368 52.5399 3.07214C51.5407 4.42182 51.649 6.29314 51.7626 7.87893C52.1391 13.1404 52.4162 18.6654 51.7294 23.8962C51.4745 25.8355 51.1677 28.0593 52.4714 29.5233C53.3059 30.4612 54.6097 30.8246 55.8539 31.0113C58.1634 31.3583 60.2973 31.2541 62.619 31.0037C63.3387 30.9257 64.0727 30.83 64.724 30.5159C65.3764 30.202 65.9428 29.6298 66.0653 28.9193C66.221 28.0143 65.6348 27.1412 64.9505 26.5251C64.2582 25.9013 63.4159 25.4171 62.864 24.6528C62.3483 23.939 62.196 22.9264 62.7216 22.1752C63.259 21.4065 64.3564 21.3263 65.18 21.614C66.5389 22.0896 67.6406 23.2702 68.5427 24.3409C69.4668 25.4369 70.2946 26.6163 71.3126 27.6321C71.5145 27.8332 71.7232 28.0275 71.9396 28.212C71.9826 28.2482 72.0245 28.2845 72.0687 28.3196C75.619 31.2266 80.6762 31.4045 85.2365 30.8082C86.1706 30.6861 87.1409 30.5215 87.9037 29.9714C88.8905 29.2598 89.3554 28.0154 89.4834 26.8097C89.6943 24.8285 88.9855 22.6518 86.8274 22.1829C86.1108 22.0281 85.3711 22.0511 84.6383 22.0972V22.095ZM66.7345 13.9234C64.0883 13.9234 61.9443 13.561 61.9443 11.57C61.9443 9.57894 64.0894 9.21652 66.7345 9.21652C69.3795 9.21652 71.5244 9.71511 71.5244 11.57C71.5244 13.4248 69.3795 13.9234 66.7345 13.9234Z" fill="#AAC2FF"/>
<path d="M47.0286 25.8328C46.8741 24.437 46.6721 23.0226 46.4754 21.6553C46.217 19.8543 45.9521 17.9994 45.7922 16.1687C45.4675 12.5974 45.9246 9.05245 45.8286 5.48442C45.7966 4.29176 45.8197 3.06839 44.9985 2.12174C44.5833 1.64402 44.0126 1.32994 43.4186 1.13336C42.5112 0.833556 41.5144 0.689692 40.5429 0.677612C39.5715 0.689692 38.5746 0.834655 37.667 1.13336C37.0732 1.32994 36.5023 1.64402 36.0873 2.12174C35.2659 3.06839 35.2902 4.29176 35.2572 5.48442C35.161 9.05135 35.6181 12.5974 35.2936 16.1687C35.1335 17.9994 34.8686 19.8543 34.6102 21.6553C34.4149 23.0226 34.2118 24.437 34.0572 25.8328C33.9425 26.8695 33.8983 28.1919 34.5782 29.2273C35.3367 30.3827 36.8215 31.0394 38.9907 31.1799C40.0581 31.249 41.1312 31.2578 42.1989 31.1689C43.1073 31.0932 44.017 30.9493 44.8581 30.5705C45.5106 30.2773 46.1057 29.8369 46.5063 29.2264C47.1864 28.1907 47.1422 26.8684 47.0275 25.8319L47.0286 25.8328Z" fill="#AAC2FF"/>
<path d="M26.6247 4.60432C25.076 3.07122 22.8846 1.94448 20.287 1.34706C17.2202 0.640925 14.011 0.663987 10.9079 0.684852L10.6208 0.687049C10.3956 0.688147 10.1682 0.688147 9.9408 0.689245H9.62617C8.03207 0.689245 6.04939 0.689245 4.28418 1.28447C3.09082 1.68641 2.11602 2.34422 1.46469 3.18544C0.043914 5.01833 0.144373 7.49365 0.233793 9.67688L0.250352 10.0997C0.33094 12.2269 0.379513 14.1246 0.355227 15.9541C0.379513 17.7837 0.332044 19.6814 0.250352 21.8086L0.233793 22.2314C0.144373 24.4145 0.043914 26.8901 1.46469 28.724C2.11602 29.5651 3.09192 30.2229 4.28418 30.6248C6.04829 31.2203 8.03207 31.2203 9.62617 31.2203H9.9408C10.1682 31.2203 10.3956 31.2203 10.6208 31.2223L10.9079 31.2245C14.011 31.2455 17.2202 31.2673 20.2881 30.5622C22.8846 29.9648 25.0771 28.8382 26.6259 27.3051C29.8306 24.1335 30.6287 19.4804 30.5481 15.9541C30.6287 12.4279 29.8306 7.77588 26.6259 4.60321L26.6247 4.60432ZM20.1236 15.9772C20.1236 18.469 17.6077 19.14 14.5045 19.14C11.4013 19.14 8.88542 18.6535 8.88542 15.9772C8.88542 15.9695 8.88542 15.9629 8.88542 15.9552C8.88542 15.9476 8.88542 15.941 8.88542 15.9333C8.88542 13.257 11.4013 12.7705 14.5045 12.7705C17.6077 12.7705 20.1236 13.4415 20.1236 15.9333C20.1236 15.941 20.1236 15.9476 20.1236 15.9552C20.1236 15.9629 20.1236 15.9695 20.1236 15.9772Z" fill="#AAC2FF"/>
</g>
<defs>
<clipPath id="clip0_15_3103">
<rect width="120" height="32" fill="white"/>
</clipPath>
</defs>
</svg>
