<svg width="128" height="167" viewBox="0 0 128 167" fill="none" xmlns="http://www.w3.org/2000/svg">
<path d="M5.95616 1.16707V0.0587512C6.13363 0.0809175 6.35176 -0.00405341 6.51074 0.0587512C7.6421 0.509466 9.26149 0.0883062 10.574 1.16707L11.3135 0.797628C14.2749 2.3308 18.4676 1.56975 21.6583 2.27538C22.6011 2.48227 23.47 2.44902 24.6124 2.64482C25.5774 2.81107 26.7162 2.44163 27.9362 2.64482C30.613 3.08815 34.0848 2.87018 37.1719 3.3837C41.6345 4.12627 48.0159 4.78387 53.4287 5.60033C54.5527 5.77027 56.3162 5.82938 57.1222 6.70865L58.2314 6.33921C60.6346 7.61746 63.9547 6.86381 66.3616 8.1864L67.8405 7.81696L68.9497 8.55586C69.19 8.51153 69.4673 8.61867 69.6892 8.55586C71.4232 8.05712 73.5528 9.63462 75.601 9.29474C76.7879 9.09894 77.1946 9.54226 78.1891 9.66418C79.9083 9.87476 81.7311 9.11002 82.9918 10.7725L83.3615 10.4031L86.1345 11.1419L86.5042 10.4031L86.6891 11.1419L88.5377 10.7725C88.8778 11.3968 89.5175 11.0052 90.0166 11.1419C90.3789 11.2417 91.5435 12.1801 91.8652 12.2502C92.649 12.4202 94.3756 12.3795 94.8193 12.2502C95.0818 12.1764 98.5683 12.4645 99.2523 12.6197C100.273 12.8487 101.238 12.7675 102.576 12.9891C102.717 13.0113 102.816 13.3512 102.946 13.3586C103.012 13.3623 103.593 12.701 104.24 12.9891L104.055 13.728L105.164 13.3586C105.519 13.9755 106.122 13.6061 106.643 13.728C107.253 13.8684 107.427 14.3856 108.492 13.728C110.592 15.3831 112.688 14.574 114.404 15.5752L116.252 15.2058C116.992 16.3843 118.079 15.7784 119.206 15.9446C119.314 15.9594 119.831 16.5948 120.5 16.3141C120.312 17.2377 120.792 17.5812 121.425 18.1613L124.013 17.0529C124.201 17.5258 124.896 17.3817 124.937 17.4224C124.985 17.4704 124.904 18.3016 125.492 18.5307H127.155C127.056 19.2659 127.3 20.256 127.155 20.9321C127.081 21.2756 126.205 22.0293 126.416 22.5945H125.676C125.695 23.6881 124.564 24.4934 124.198 25.3653C123.791 26.3332 123.077 25.8567 123.088 27.0278H122.349C120.985 29.8577 118.581 33.2344 115.882 35.1517C113.183 37.0691 111.021 41.2807 107.937 42.9063C101.933 49.5303 96.7197 58.4116 90.2014 65.6156C86.4377 69.7755 81.7717 73.4884 78.3777 77.8034C75.3755 81.616 73.3753 86.5554 71.7263 91.0958C69.6966 96.6928 68.5023 102.282 67.2933 108.083C67.0345 109.316 65.6666 117.197 65.8145 117.684C66.3542 119.454 66.5132 121.46 65.075 122.853L65.8145 123.592C66.1953 126.403 64.9012 129 65.8145 131.531H66.5539C66.8164 132.384 67.0124 133.352 67.2933 134.302C68.0106 136.744 68.6428 139.016 69.8814 141.317C71.4084 144.155 72.8614 146.903 74.6841 149.441C76.3812 151.806 78.4073 153.996 79.8566 156.457C80.6774 157.853 81.524 159.257 81.7052 160.886C81.2911 161.067 81.3983 161.526 81.3355 161.625C81.1876 161.854 80.2263 162.497 80.0414 162.549C79.7272 162.634 79.2465 162.464 78.9323 162.549C78.7696 162.593 77.9636 163.258 77.8231 163.288C77.1169 163.439 75.8599 163.576 75.235 163.657C74.6102 163.739 73.8596 163.602 73.2015 163.657C73.1239 165.445 71.7522 164.873 70.7983 165.135C70.1476 165.312 69.6004 167.385 68.2103 165.504C67.9256 165.944 67.2342 165.992 66.7314 165.874C61.1005 164.559 55.074 164.019 49.3654 162.918C44.5923 161.998 39.7489 161.293 34.9536 160.332C32.1252 159.767 28.7681 159.102 26.4537 158.485C23.6327 157.731 20.6786 157.251 17.9537 156.268C17.7356 156.191 17.6394 155.703 17.0294 155.899C16.985 155.145 16.4674 154.702 16.6597 153.867C16.6892 153.734 16.9554 153.657 17.0294 153.498C17.0812 153.383 16.9813 153.21 17.0294 153.128C17.1995 152.844 18.0092 152.094 18.3234 151.835C18.4454 151.735 19.7099 150.753 19.8023 150.727C22.5272 149.944 33.5708 141.757 36.0591 139.647C38.8098 137.316 39.8709 134.767 43.4499 133.74C43.6606 133.681 44.0858 132.998 44.3742 132.817L44.0044 132.447C44.0044 132.325 44.352 132.218 44.3742 132.078C44.8178 129.414 44.6108 126.037 46.2228 123.954C46.2228 123.835 45.8974 123.739 45.8531 123.584C45.7458 123.215 46.7996 119.539 46.9622 118.785C48.4374 111.892 48.541 104.621 49.9163 97.7346C50.286 95.8911 50.5486 93.0316 50.286 91.4578C50.0605 90.0946 50.5929 88.9567 50.6558 88.1329C50.8702 85.2845 50.641 81.7675 50.286 79.6395C50.0679 78.3243 50.482 76.5547 50.286 75.2099C50.2676 75.0732 49.9459 74.9846 49.9163 74.8405C49.469 72.598 49.1029 72.103 48.0677 70.0415C46.2671 66.4506 43.8122 62.9778 41.7861 59.7009C38.6287 54.5879 36.2513 49.63 32.9201 44.5613C27.9732 37.0359 21.858 30.4673 15.9239 23.5107C12.6112 19.6316 9.12099 15.686 6.31849 11.6924C5.61601 10.6912 4.74716 10.3255 4.46987 9.29104H3.73042C2.92442 7.63596 1.71173 6.03257 0.776327 4.30729C0.639529 4.05238 0.0923378 3.76053 0.0368792 3.56842C-0.177561 2.82585 0.391814 2.14608 1.14605 2.27538L0.776327 1.72122L1.14605 0.42819L2.80981 0.0587512C3.87461 0.830878 4.5586 1.42198 5.94876 1.16707H5.95616ZM18.1497 7.07439C17.3769 7.00789 16.5007 7.17044 15.7464 7.07439C14.3415 6.89336 12.4226 6.13971 10.9437 5.96607C9.87893 5.84046 8.74018 6.26532 7.80478 5.59663C7.65689 6.41309 7.94527 6.77145 8.54423 7.25911C8.09316 7.54727 8.03401 8.60019 8.1745 9.10632C8.32609 9.66048 9.93439 9.69373 9.6534 10.7688L10.3928 10.0299L10.7626 11.323L10.3928 12.0618L11.3172 12.9854L12.6112 12.616L12.9809 14.8326L13.9052 15.2021L14.8295 14.8326L15.1993 16.6798L16.1236 16.3104L17.7873 17.9728L17.4176 18.8964C18.3049 18.7597 18.9852 19.0738 18.8965 20.0048H19.6359V20.7436C21.0779 21.0872 22.0355 23.1302 22.9598 24.2533C23.6437 25.0808 24.8306 26.3554 25.363 26.6547C25.9212 26.9687 25.9878 27.9699 26.4721 28.1324C26.9121 28.2802 27.6922 28.2026 27.3964 27.5782C26.8677 26.4662 26.1764 25.321 25.5478 24.2533C24.6235 22.6832 23.5661 20.9912 22.0391 20.0048C21.5918 19.7166 21.0964 19.4986 20.7451 19.0812C20.6527 18.7634 21.3478 17.6219 21.6694 17.4187C22.3127 17.0086 23.0966 16.6429 23.8878 16.3104C24.2057 16.1774 24.4534 15.7082 25.1818 15.9409V15.2021C25.9139 15.8707 26.8603 15.372 27.585 15.5715C27.9584 15.6749 29.7442 16.9532 30.5391 17.0492C34.1402 16.8017 38.5806 17.5886 42.3629 18.1576C47.8348 18.9814 53.5248 19.1809 58.9894 20.0048C63.6331 20.703 68.2472 20.2781 72.6617 20.7436C72.7948 20.7584 72.8984 21.0983 73.0315 21.1131C78.4701 21.6783 84.7924 21.1463 89.6579 22.2214C91.2441 22.5724 93.8876 21.9221 95.5698 22.2214C97.925 22.6425 100.21 21.7005 102.591 21.4825C103.693 21.3828 108.455 21.2645 109.242 21.4825C109.542 21.5638 110.351 22.5502 110.167 22.9603H110.906C111.279 25.0476 109.775 26.1596 108.688 27.5745C108.285 28.1028 106.543 30.1976 106.469 30.5301C106.055 32.3773 106.65 32.5989 105.36 34.5939C104.931 35.2515 101.171 39.7106 100.742 39.947C99.7662 40.4901 99.3854 41.979 97.9693 42.1637V42.9026C94.2795 45.1598 91.8615 49.5155 89.4694 52.8737H88.7299C85.4764 57.8944 80.5332 62.2057 75.797 65.8003V66.5392L74.6878 67.0934L69.7003 72.816C69.227 72.7606 68.665 72.8973 68.2214 72.816C68.0809 72.7901 67.9884 72.465 67.8516 72.4465C67.286 72.3653 66.4726 72.5758 66.003 72.4465C65.8145 72.3948 65.5187 71.8444 65.2636 71.7077C64.3393 71.2089 63.0785 70.7287 62.4906 69.6758C62.0581 68.9036 60.8121 68.0946 59.9026 67.0897C55.8541 62.6121 51.4322 56.6937 48.0788 51.5807C45.7384 48.0119 42.1078 44.7017 39.9486 41.6095C39.0834 40.3682 37.7857 39.4187 37.3605 38.654C36.6543 37.3905 33.6707 35.2367 32.5578 34.0397C32.3766 34.7527 33.0015 34.9042 33.2972 35.3328C34.1032 36.5039 34.0848 36.5704 35.3307 37.3647C36.1885 37.9114 35.7189 39.6995 36.8096 40.3202C37.6896 40.8189 37.8264 41.4137 38.4734 42.3521C40.2665 44.9566 43.2909 49.4158 44.0155 51.9538C44.3076 52.9808 47.0695 55.541 46.9696 56.9375H47.7091C47.7497 59.2133 53.9981 65.7228 53.9907 67.0934C53.9907 67.666 53.6099 67.3187 54.3604 68.5711C55.1627 69.9048 55.7247 70.7545 56.209 72.2655C56.3236 72.6239 56.9115 73.8578 56.9485 74.1127C57.1407 75.4279 56.8597 77.1421 56.9485 78.5423C57.4772 87.0357 56.9004 96.0389 55.8393 104.392C55.1294 109.978 54.4491 115.619 53.2512 121.009C52.3898 124.892 51.484 128.912 50.6632 132.828C50.4376 133.903 50.1493 134.819 49.9237 135.783C49.8461 136.112 50.0088 136.581 49.9237 136.891C49.872 137.076 49.3248 137.375 49.1843 137.63C49.0881 137.804 49.2545 138.114 49.1843 138.184C49.114 138.255 48.8035 138.088 48.6297 138.184C48.0307 138.517 48.0307 139.215 46.7811 138.923C46.6369 138.89 46.5518 138.58 46.4113 138.554C46.1082 138.498 45.1876 138.484 44.9325 138.554C44.5886 138.65 41.9414 141.672 41.2389 142.248C38.2552 144.69 34.4323 146.866 31.2638 149.264C30.5206 149.825 29.8181 150.564 29.0454 151.111C28.7718 151.303 27.9067 151.252 28.1211 152.219L30.5243 152.958C42.4035 155.7 54.4676 157.761 66.7351 159.605C66.8756 159.627 66.9717 159.959 67.1048 159.974C68.6281 160.133 70.3547 159.859 71.9075 159.974C72.0813 159.361 73.5195 159.357 73.2015 158.681C73.0573 158.374 72.3623 157.938 72.0924 157.573C68.8314 153.18 65.8145 148.218 63.2264 143.172C63.0119 142.754 62.5054 142.134 62.4869 142.064C62.2836 141.362 62.328 140.556 61.5626 140.032L59.5291 139.662C59.7325 139.067 59.1853 138.886 59.1594 138.739C59.0226 137.978 58.6899 136.023 58.7897 135.414C58.9598 134.387 58.5716 133.031 58.7897 131.719C59.2186 129.152 59.5661 123.078 59.1594 120.64C58.7195 117.995 59.8619 115.05 59.8989 112.516L60.6383 111.777C60.4867 107.735 61.8547 102.6 62.8567 98.4846C63.182 97.1546 63.2855 95.7396 63.5961 94.4207C64.1729 91.9788 65.5298 89.4407 66.1842 87.0357C67.1159 83.5962 70.3842 79.3883 72.4658 76.3257C73.1276 75.354 73.135 75.0769 73.575 74.109C74.2516 72.6239 75.5604 71.8998 76.7139 70.9688C79.8455 68.4455 82.7145 65.8447 85.3987 62.6601C90.8041 56.243 95.2556 48.9983 100.546 42.7178C104.828 37.6381 110.344 33.0644 114.588 27.9477C115.919 26.3406 117.395 24.3457 118.467 22.5945C118.711 22.1955 118.678 21.9185 118.652 21.4862C118.485 21.3237 115.805 21.6303 115.143 21.4862C115.017 21.4603 114.16 20.7732 114.034 20.7473C109.56 19.7794 105.179 18.8299 100.731 18.1613C98.0507 17.7586 95.2888 17.7475 93.3404 17.4224C90.0905 16.883 86.9072 16.5099 83.735 15.9446C76.4995 14.659 69.1863 13.8573 61.9361 12.6197C55.7358 11.5631 49.2804 10.7651 43.0912 9.66418C40.444 9.19499 37.6674 9.26888 34.961 8.9253C32.9793 8.67408 30.6574 8.13098 28.6794 7.81696C28.1692 7.73568 27.5517 7.86868 27.0156 7.81696L26.6459 6.33921H25.5367L25.9065 7.81696C25.3001 8.01276 25.1966 7.52141 24.9822 7.44752C24.1503 7.15936 23.8915 7.38472 23.5033 7.44752C22.8821 7.55097 19.5731 7.58052 19.0703 7.44752C18.5674 7.31452 18.4122 6.45004 18.5157 5.96977C17.7984 6.22099 17.7023 6.44634 18.146 7.07808L18.1497 7.07439Z" fill="#AAC2FF"/>
</svg>
