<svg width="91" height="127" viewBox="0 0 91 127" fill="none" xmlns="http://www.w3.org/2000/svg">
<path d="M88.0251 13.2419L89.1454 13.4155C89.2674 14.0547 90.103 15.0004 90.1992 15.3182C90.4912 16.2787 90.0845 18.052 90.2213 19.1418L88.4171 19.9251C88.3468 20.1874 88.4392 20.5014 88.3283 20.7489C84.4019 29.7485 79.8431 39.1691 74.1605 47.2192C72.4191 49.687 70.5261 52.2066 68.4261 54.4122C64.8213 58.2063 62.1963 60.0904 57.0978 61.9228C56.4212 62.1667 55.7187 62.392 54.9867 62.3957C53.9292 62.9979 54.1917 64.169 53.9662 65.0668C52.7018 70.0948 52.2322 75.1672 51.4484 80.2766C50.8087 84.4623 50.7126 85.6002 51.0786 89.8635C51.2561 91.9397 51.1415 93.9495 51.9771 95.9814C52.1138 96.1846 53.5928 96.7239 53.8405 96.7239C54.2176 96.7239 54.5319 96.3582 54.9459 96.3176C56.2104 96.192 56.9942 97.5035 58.0775 98.0059C59.1793 98.5194 60.599 98.6413 61.7969 99.0921C64.2445 100.008 69.9567 102.971 71.2138 105.188C72.2675 107.046 72.005 106.377 73.6022 107.6C75.4952 109.048 77.3364 110.877 79.1259 112.44C78.5602 113.766 80.0465 114.801 79.3403 116.282C79.1111 116.766 78.1239 117.97 77.6655 118.303C77.1035 118.709 76.2643 118.901 75.6838 119.278C65.8196 125.706 56.2696 126.652 44.5937 126.249C43.5991 126.216 42.2644 125.947 41.281 125.865C34.4965 125.304 23.098 125.485 17.4412 121.255C16.8718 120.83 15.0601 118.835 14.89 118.266C14.6978 117.619 14.72 114.834 15.404 114.819L16.3209 115.155L16.3468 114.427L17.0715 114.797C16.1915 109.769 20.5653 109.769 23.8558 108.099C27.9265 106.038 32.7182 101.726 34.9994 97.8175C35.2988 97.3077 35.2803 96.5614 35.7277 95.9629C36.2083 95.3201 36.8405 95.3238 36.981 95.1834C37.6465 94.5258 38.264 89.7009 38.508 88.4005C39.9278 80.8307 40.8299 73.756 41.8133 66.2231C41.9132 65.4473 42.8892 65.2182 42.5565 64.0249L41.9797 63.493C41.647 63.4302 41.255 63.5188 40.9556 63.408C32.8216 60.4266 28.1742 55.4171 24.1405 47.718C21.9998 43.632 21.1902 39.1691 19.4858 35.013C17.1787 29.3901 14.3872 27.0183 13.315 20.5014C13.0858 19.1086 13.2189 17.7343 12.9971 16.0164C12.7272 13.8995 13.9066 12.008 15.2117 10.46C19.4377 5.43937 25.3126 3.3151 31.657 2.15506C37.9867 0.995027 45.1631 0.459334 51.6295 0.669914C58.3289 0.887883 65.5016 1.81889 72.2453 3.3299C76.9815 4.39388 80.7416 5.74971 84.8197 8.11781C85.4704 8.49463 87.4151 9.59925 87.6 10.1423L88.014 13.2345L88.0251 13.2419ZM79.1555 12.1373C78.9854 11.4465 78.05 11.2876 77.4252 11.0955C65.8824 7.58214 52.2211 6.62899 40.1866 7.71883C39.2771 7.80011 38.46 7.43806 37.9535 7.44175C37.1179 7.44175 34.589 8.24712 33.5205 8.44661C31.5092 8.82344 28.7473 9.06358 26.9246 9.61035C25.3237 10.0906 23.7967 11.1694 22.2476 11.7679L24.7062 12.8171C34.0713 14.1175 43.5769 14.498 53.0936 13.9771C58.743 13.6668 64.4479 13.9402 70.1046 13.6225C71.3358 13.5523 73.0365 12.9537 74.1642 12.8577C74.8667 12.7986 75.3066 13.3232 76.0128 13.2678C76.9815 13.1902 78.1461 12.2297 79.1518 12.1373H79.1555ZM82.1095 21.739L72.5041 22.8473C72.8849 24.1736 72.9848 25.7105 72.8813 27.0996C72.6742 29.8593 72.4154 32.7963 72.1418 35.593C72.0642 36.3799 71.4763 37.7357 71.3876 38.5337C71.2988 39.3317 71.4578 40.1592 71.395 40.9424C71.9458 40.5434 72.6668 39.6494 73.055 39.0915C75.632 35.3934 79.9134 27.7461 81.5698 23.601C81.7029 23.2722 82.2205 21.8461 82.1095 21.7427V21.739ZM28.9026 118.857C29.6864 118.92 30.5442 118.768 31.3095 118.85C31.7125 118.894 32.0231 119.208 32.4039 119.234C35.6944 119.441 38.6633 119.282 42.0093 119.603C48.5793 120.231 55.0791 120.253 61.5382 118.794C64.5699 118.111 68.3817 116.74 70.7887 114.745C71.0733 114.509 71.5391 114.354 71.3913 113.87L68.6627 112.229C67.5536 112.979 66.1819 113.219 64.9803 113.74C64.4886 113.955 64.0153 114.594 63.3979 114.741C53.2083 117.191 42.0315 117.601 31.6755 118.236L28.8989 118.85L28.9026 118.857Z" fill="#AAC2FF"/>
<path d="M17.0641 88.2274C17.4967 90.795 15.8625 91.6041 14.4835 93.1853C13.8032 93.9648 13.3891 94.8514 12.4722 95.6051C12.1468 95.8711 10.0394 97.3452 9.88411 97.3525C9.7584 97.3599 9.52175 97.0829 9.20378 97.1272C8.6492 97.2048 8.1981 97.6665 7.31816 97.4116C6.8597 97.2786 6.44932 96.2368 5.6692 96.2775L5.58047 95.6457L4.90024 95.5718C5.53616 94.7886 3.4102 91.7703 2.81494 91.5782C2.21969 91.3861 1.49506 91.5375 0.81107 90.9945L0.0864258 89.151L1.18079 88.5673L0.63361 84.8766C0.297161 84.6845 0.903512 84.1747 1.00703 84.1488C1.81673 83.9308 3.22535 85.1832 4.30494 84.8618C4.69685 84.7473 5.04806 83.9345 5.47324 83.8126C5.99455 83.6685 6.56769 83.9382 7.11118 83.6057C7.93197 83.1033 9.72136 81.0307 10.0911 80.1219L11.3482 79.6934C12.7088 80.2771 14.1581 80.6871 15.2229 81.7696L14.8864 86.89L17.0641 88.2237V88.2274Z" fill="#AAC2FF"/>
<path d="M26.2959 67.1804L26.7064 69.1939C26.7138 69.9623 25.7413 70.6531 25.6119 71.0743C25.2311 72.3562 26.1296 74.2921 24.854 75.4854C24.7653 75.5445 23.2605 75.9398 23.1718 75.9398C23.0387 75.9398 21.0533 74.9275 20.7723 74.728C19.4635 73.8007 16.9124 70.0583 16.6979 68.4623C16.428 66.4821 18.0326 66.4267 19.4857 67.1028C20.2362 66.6225 20.8129 65.4219 21.6855 65.3C24.0739 64.9675 24.3179 66.5634 26.2959 67.1767V67.1804Z" fill="#AAC2FF"/>
</svg>
