<svg width="34" height="152" viewBox="0 0 34 152" fill="none" xmlns="http://www.w3.org/2000/svg">
<path d="M33.6972 55.7704H32.9577L33.3274 56.694C32.9392 57.3886 32.4734 57.1226 32.0334 57.2482C31.2459 57.4735 30.8244 59.0104 30.7394 59.0954C30.6691 59.1656 30.3586 58.9993 30.1848 59.0954C28.8649 59.8306 28.8871 61.1014 26.861 61.6814C26.6502 61.7406 25.2157 63.1038 25.0123 63.1592C24.3579 63.3402 23.1785 63.0262 22.4243 63.1592C22.2949 63.1814 21.0748 63.8759 20.9454 63.8981C20.0728 64.0532 19.1116 63.5286 18.5422 64.4522L18.9119 64.8217L18.5422 65.1911L18.9119 66.6689C17.8249 68.2833 17.1446 70.0197 17.0633 71.8373L15.2147 74.054C15.6879 74.6081 16.4569 74.9517 16.3238 75.7164C17.1964 74.9148 18.2612 74.7781 19.4628 74.9776C19.9841 75.0625 20.4315 75.1549 21.3114 74.9776C21.5259 74.9332 21.8068 74.1242 22.4206 74.9776L23.16 74.6081C23.6074 75.4357 25.3118 75.395 25.5632 76.2706C25.6298 76.5033 25.493 76.7878 25.5632 77.0095C25.6113 77.1609 25.9071 77.2422 25.933 77.3789C26.262 79.2224 26.0513 84.1581 25.933 86.2417C25.4043 95.4814 23.6961 106.158 24.0843 115.416C23.2968 122.949 23.7183 132.115 22.9752 140.158C22.7718 142.348 22.9641 145.537 22.6054 147.543C22.587 147.65 21.9769 148.071 22.2357 148.651L20.9417 149.944C20.2281 150.129 19.4295 150.173 18.7233 150.313C16.5642 150.746 14.1277 151.533 12.072 151.052C11.1551 150.838 10.741 151.4 10.5931 151.422C9.25102 151.618 7.55769 151.281 6.16013 151.422C5.72386 150.982 4.35588 150.916 4.12665 150.129C4.0601 149.896 4.1969 149.612 4.12665 149.39C4.07859 149.238 3.78281 149.157 3.75693 149.02C3.64601 148.403 3.65341 146.327 3.75693 145.695C4.10077 143.63 4.16732 140.542 4.49638 137.941C4.98811 134.073 4.05641 129.041 4.8661 125.384C6.2119 119.292 6.22299 110.728 7.08444 103.964C7.60945 99.826 7.5392 94.8497 7.82389 90.6713C7.97918 88.403 7.8091 86.1087 8.19362 84.3945C8.62989 82.4439 7.75734 78.9601 8.19362 77.0095C8.23059 76.8395 8.77408 76.6696 8.56334 76.2706L12.072 73.8692L12.9963 74.2387C12.8669 73.5035 13.6729 73.3853 12.9963 72.9456L13.366 71.4679C12.2606 70.6662 12.2606 68.5752 13.366 67.7735L14.1055 65.5569C13.6544 65.2096 13.2551 64.5594 12.8115 64.2638C12.438 64.0163 11.3363 63.7725 10.9628 63.525C10.2862 63.0742 8.37847 61.0904 8.18991 60.7542C7.59466 59.6828 5.89023 59.5166 5.97157 58.3528H5.23212C4.58141 56.6349 2.8585 55.0907 1.90831 53.3691C1.26499 52.2017 1.07273 51.2928 0.799138 50.0441C0.765863 49.9001 0.451598 49.8114 0.429414 49.6747C0.336983 49.1095 0.514451 48.4038 0.429414 47.8275C0.407231 47.6871 0.0744793 47.5911 0.0596903 47.4581C-0.0142544 46.7672 -0.0253461 45.5518 0.0596903 44.872C0.0781765 44.7353 0.403534 44.6429 0.429414 44.5026C0.510753 44.0518 0.34068 43.4607 0.429414 43.0248C0.458992 42.8844 0.762166 42.8031 0.799138 42.6554C1.10971 41.4288 1.22432 40.158 1.90831 38.961C3.19125 36.7148 4.78476 34.4945 5.97157 32.3148C6.59271 31.1732 6.81824 30.3789 7.63533 29.9134C8.04202 29.6844 11.9315 23.4446 12.6229 22.3436C13.4659 21.0063 13.7136 20.0568 14.1018 18.6493C14.1646 18.4276 15.3367 16.6801 15.5807 16.0632C16.261 14.3342 16.2758 12.3097 17.4293 10.8947L17.0596 10.1559C18.1059 8.53403 18.4054 6.43562 18.9082 4.61798C18.9563 4.44804 19.3851 4.05644 19.6477 3.14023C19.6661 3.07373 20.3316 2.1058 20.3871 2.03191C20.5831 1.77331 22.2875 0.406382 22.4206 0.369439C22.7829 0.265996 23.2266 0.554158 23.5298 0L25.3784 1.10832L25.7481 0.738877C25.8775 0.738877 26.6317 1.87675 26.6724 2.03191C26.7574 2.34963 26.58 2.84468 26.6724 3.14023C27.1715 4.73251 27.9738 6.59447 28.1513 8.30867C28.3066 9.8012 27.9184 11.7038 28.1513 13.1077C28.3325 14.2012 27.9184 15.7676 28.1513 17.1715C28.4064 18.6973 28.5839 21.0432 28.8907 23.0788C29.401 26.4592 29.7189 31.3986 29.2605 34.1583C29.0349 35.5215 29.8853 38.0078 30.3696 39.3267C31.098 41.3069 32.5177 43.6935 32.9577 45.6035C33.2239 46.7746 33.6084 49.3164 33.6972 50.4025C33.8377 52.1315 33.5936 54.0082 33.6972 55.7557V55.7704ZM20.0285 34.7235C19.485 37.2911 17.8952 39.1716 16.3349 41.185C15.1075 42.7699 13.3623 44.3917 12.6414 46.3534C12.5637 46.5603 12.7079 46.8559 12.6414 47.0923C12.597 47.2438 12.2975 47.3251 12.2716 47.4618C12.1385 48.2117 12.157 50.7387 12.2716 51.5256C12.3086 51.7694 12.9187 53.044 13.0111 53.3728C13.2292 54.1745 13.1886 55.1128 13.7505 55.9588C14.0426 56.4022 14.697 56.8012 15.0446 57.2519C16.627 57.0598 18.7271 57.5179 20.217 57.2519C20.3538 57.226 20.4315 56.9305 20.5868 56.8824C20.8049 56.8123 21.0933 56.9489 21.3262 56.8824C21.988 56.694 21.781 55.8074 21.8808 55.5894C21.988 55.3493 22.5722 54.651 22.6202 54.4811C22.8901 53.491 22.7497 51.9652 23.3597 51.1561C22.8717 50.2917 23.3227 50.2732 23.3597 50.0478C23.6666 48.1932 23.197 44.6208 22.99 42.6628C22.7977 40.8377 22.062 38.5472 21.8808 36.7554C21.7921 35.8836 22.0694 34.5056 21.8808 33.7999C21.8549 33.7039 21.3262 33.0647 21.1414 33.4305L20.7716 34.7235H20.0322H20.0285Z" fill="#AAC2FF"/>
</svg>
