<svg width="402" height="488" viewBox="0 0 402 488" fill="none" xmlns="http://www.w3.org/2000/svg">
<path d="M374.722 20.3397C374.91 20.528 379.172 22.3799 379.434 22.4322C381.455 22.8716 384.503 22.1497 386.765 22.4322C388.325 22.6205 393.185 23.9388 395.132 24.5247C395.771 24.7131 396.787 26.3243 398.798 25.571C398.63 28.8668 404.338 30.1118 400.892 33.418L401.939 35.5106C400.609 37.509 398.955 37.1532 396.703 37.08L397.75 39.6957C395.834 42.4578 393.205 42.8554 389.896 42.3113C385.843 41.6417 381.445 43.2111 377.34 40.2188C371.046 42.7717 361.306 38.5134 355.358 40.2188C353.274 40.8152 352.52 39.2248 352.216 39.1725C348.31 38.4715 316.966 38.3983 313.489 39.1725C311.677 39.5806 308.934 43.1588 308.253 43.3576C303.813 44.6341 298.692 43.954 294.649 45.4502C290.931 46.8208 286.805 49.3214 283.14 50.6815C274.081 54.0505 264.824 56.0803 255.933 60.098C250.791 62.4102 245.669 67.1185 241.282 70.5607C227.667 81.2222 214.378 91.5803 200.46 101.938C197.36 104.24 192.7 106.709 191.569 108.739C190.574 110.518 188.511 110.874 187.903 111.355C170.676 124.998 155.292 144.532 145.521 163.124C138.798 175.92 133.447 188.957 129.823 202.862C129.258 205.059 127.017 209.662 126.681 211.232C125.875 214.977 126.294 220.889 125.634 224.823C125.037 228.422 124.168 232.879 124.587 238.414C124.618 238.791 125.613 239.094 125.634 239.46C125.886 243.164 125.194 247.401 125.634 250.969C125.718 251.618 126.399 254.976 126.681 256.201C128.357 263.556 137.95 287.233 142.38 293.845C145.312 298.229 151.061 302.864 151.794 307.96C154.622 307.269 155.198 310.701 155.983 311.622C161.858 318.454 172.299 326.97 179.536 332.013C182.007 333.74 183.788 336.617 184.772 337.245C196.376 344.652 207.414 354.058 220.358 360.252C228.327 364.071 236.548 369.543 244.434 373.843C260.394 382.559 278.249 390.113 295.717 396.851C311.206 402.825 325.061 407.314 340.717 411.488C345.2 412.681 353.724 415.14 359.557 415.673C369.747 416.604 381.152 414.993 391.478 415.673V417.766H394.096L395.667 419.335L393.572 425.613L390.954 428.228C390.168 428.417 388.346 428.961 387.812 429.275C385.383 430.698 383.131 432.414 383.1 435.552C371.664 441.778 361.977 452.272 351.179 459.606C346.938 462.494 342.498 464.409 338.623 467.976L337.576 466.93C335.219 469.776 332.203 470.456 328.685 470.069V472.161C327.512 472.297 326.087 471.942 325.019 472.161C324.265 472.318 322.6 474.735 320.83 472.161C316.139 475.98 308.274 473.584 301.99 475.3C294.859 477.246 284.543 481.034 276.877 480.532C270.919 484.162 261.912 484.194 254.896 485.763C251.618 486.495 250.885 485.24 248.612 485.763C235.019 488.891 213.896 488.243 198.376 486.809C190.584 486.087 183.777 485.46 176.394 486.809C171.441 487.719 168.194 483.346 163.838 482.624C144.746 479.475 126.42 472.517 108.365 463.802C97.1595 458.392 87.2107 451.1 78.0159 443.933C61.2914 430.896 44.5459 415.098 32.4921 397.395C29.9892 393.712 27.7481 389.663 25.1614 385.886C17.2861 374.387 12.3536 361.905 8.41595 349.277C5.86067 341.085 5.58839 334.524 4.22697 326.269C3.80807 323.748 -0.443749 316.445 0.0379841 314.76C0.205543 314.174 1.97539 313.243 2.13248 312.668C2.55137 311.14 2.46759 297.947 2.13248 295.938C-1.92037 271.602 4.53067 226.549 11.5472 201.815C12.4583 198.603 13.6626 195.391 14.6889 192.399C16.5112 187.115 18.5114 181.643 19.9252 176.715C20.5954 174.393 21.2342 171.63 22.0197 169.391C25.3918 159.829 30.1987 151.636 34.5762 142.199C39.2259 132.176 43.2473 120.949 49.2271 110.821C53.7093 103.236 59.7415 94.8551 64.9253 87.8137C71.9209 78.324 80.6131 69.4098 86.907 59.5748C87.8077 58.1624 90.9494 56.4988 93.1905 53.2972C96.1018 49.133 104.459 41.1814 109.412 37.0905C114.889 32.5601 123.99 26.3453 130.347 22.4531C135.164 19.5026 141.437 16.1023 146.045 14.083C147.783 13.3192 152.192 11.1534 153.376 10.9441C155.564 10.557 158.486 11.3103 160.706 10.9441C162.927 10.5779 164.717 11.4568 166.99 10.9441C168.624 10.5779 168.844 9.70954 171.703 10.9441V8.8516C174.268 7.58561 176.97 8.24476 179.557 7.80533C187.694 6.40332 196.491 3.80857 204.67 2.57397C210.178 1.74742 218.41 2.66813 223.51 1.5277C228.987 0.303562 244.256 -0.596231 250.717 0.481428C258.153 1.71603 265.536 0.387263 274.793 1.5277C281.244 2.32287 288.523 2.53212 295.728 3.62024C306.609 5.26289 317.448 5.90111 328.172 7.80533C334.706 8.96669 372.868 15.4954 374.743 18.7912C375.025 19.2829 374.544 20.1618 374.743 20.3606L374.722 20.3397ZM67.0303 247.286C65.6375 247.004 64.6007 247.747 63.8885 248.856C62.1815 251.513 59.8881 256.65 58.6523 259.318C57.2385 262.384 53.0915 267.134 52.3689 269.781C52.128 270.66 52.5888 271.989 52.3689 272.92C52.1908 273.652 50.7247 274.51 51.3216 277.105L55.5106 282.336L54.4633 283.906H56.5578C56.3484 286.061 58.5895 288.3 60.7468 288.091L59.6996 290.183H61.7941C62.8518 295.049 67.7634 299.244 71.2088 303.251C71.9942 304.162 72.5598 307.604 75.3978 306.913C75.0312 309.278 75.7539 311.318 78.5395 311.098C77.8169 308.399 80.5398 308.472 81.1576 307.96C84.048 305.553 85.954 302.686 87.9647 300.113C89.3785 298.313 90.0488 298.24 91.1065 295.927C91.3159 295.478 92.0699 295.258 92.1537 294.881C92.4365 293.605 92.4365 286.773 92.1537 285.465C91.9024 284.293 89.7136 282.284 89.012 281.28C86.3206 277.409 72.8006 263.326 72.2665 261.411C71.502 258.659 71.3659 255.301 70.172 252.518H68.0775L67.0303 247.286ZM58.6523 337.224L62.3177 343.501L65.983 340.886C66.7789 338.479 60.4117 336.523 58.6523 337.224Z" fill="#B0C4E7"/>
<path d="M306.603 294.887C306.403 295.09 306.877 295.984 306.603 296.484C305.771 297.985 303.632 298.336 304.496 301.274H302.389C299.713 310.608 290.579 316.643 286.597 324.679H283.436C283.805 326.85 281.867 328.479 279.749 327.872C278.927 327.638 279.012 325.86 277.642 327.872L271.848 324.147C272.543 322.359 270.942 321.464 270.794 320.954C270.542 320.07 271.037 318.676 270.794 317.761C269.678 313.62 260.976 302.093 258.163 298.613C257.099 297.293 255.603 296.197 254.476 294.887C254.128 294.887 253.854 295.835 253.422 295.952C251.347 296.516 248.239 297.421 246.048 297.016C245.648 296.942 245.405 296.048 244.994 295.952C244.057 295.728 242.719 296.197 241.834 295.952C241.655 295.899 239.253 293.472 239.2 293.291C237.946 288.704 242.866 285.713 246.048 283.18C248.903 282.307 250.357 283.052 253.422 283.18C258.268 280.21 261.071 273.898 265 269.354C268.308 268.906 269.931 265.192 273.418 266.16C273.671 266.235 277.031 269.63 277.105 269.886C277.4 270.929 276.578 272.206 278.158 273.079L277.105 276.272L279.739 278.933C280.876 279.284 284.774 275.218 285.533 274.143C285.691 273.92 285.364 273.345 285.533 273.079C286.934 270.865 289.821 272.025 291.327 269.354L292.381 270.418L294.488 269.354C295.794 270.812 296.605 271.919 298.702 271.482C300.271 273.866 311.523 284.659 311.86 285.84C312.629 288.544 309.995 289.193 309.753 290.098C309.31 291.705 310.553 293.514 308.173 294.887C307.677 295.175 306.792 294.685 306.592 294.887H306.603Z" fill="#B0C4E7"/>
<path d="M372.902 203L376.605 205.562V208.636C373.357 212.008 375.621 216.927 371.315 219.909C373.981 223.69 378.383 219.622 381.356 220.421C383.546 221.005 382.9 225.248 382.943 227.082C381.578 227.543 377.632 231.561 377.124 231.694C375.759 232.063 373.431 231.448 371.834 231.694C370.014 233.518 369.019 236.326 366.544 237.842C366.332 237.976 365.824 237.689 365.486 237.842C364.565 238.252 364.766 239.687 363.37 237.842L361.254 238.867L354.906 235.793C351.097 240.179 345.363 239.421 341.162 236.818H340.104C337.332 240.804 334.084 239.933 329.535 239.892C327.874 237.935 325.239 236.223 323.716 234.256C321.124 230.905 319.41 225.699 317.368 221.969L318.426 216.845C318.077 215.707 313.654 214.437 313.136 212.746C311.909 208.729 319.346 207.581 321.071 205.06H323.187C324.16 206.792 325.991 205.705 327.419 206.085C329.948 206.751 333.206 209.159 336.93 210.184C338.274 210.553 342.21 212.1 343.278 212.233C346.569 212.623 357.149 212.756 360.196 212.233C360.587 212.162 360.809 211.342 361.254 211.208C361.878 211.014 362.703 211.393 363.37 211.208C364.914 210.778 365.285 207.693 366.015 206.597C366.903 205.255 370.067 203.482 370.776 205.06L372.892 203.01L372.902 203Z" fill="#B0C4E7"/>
<path d="M249.804 210.551C251.095 209.872 253.439 212.236 252.928 212.67C251.679 212.628 250.398 213.253 249.283 213.73C244.877 215.595 234.254 218.362 229.504 219.029C223.755 219.835 219.683 217.143 222.734 225.918C223.099 226.957 224.015 226.395 224.817 226.448L225.859 222.209C229.046 222.887 230.837 220.905 233.67 220.089L237.316 223.269C236.91 221.255 238.67 220.439 239.92 219.029L242.003 220.089C244.211 217.959 246.888 217.704 249.814 217.969C249.648 219.485 250.075 221.318 249.814 222.739C249.741 223.131 248.908 223.364 248.773 223.798C248.575 224.424 248.96 225.25 248.773 225.918C248.127 228.186 243.607 227.423 241.482 227.508C240.909 229.119 242.523 229.935 242.523 230.157C242.523 230.38 240.909 231.196 241.482 232.807L238.878 233.867C233.098 234.482 228.306 231.864 224.307 227.508C221.87 229.14 223.88 229.49 223.786 231.747C221.307 231.302 220.766 234.704 218.058 233.867C217.631 233.74 217.412 232.892 217.016 232.807C215.954 232.584 214.537 232.945 213.371 232.807L210.246 226.978V222.209C207.715 222.622 208.569 224.89 208.163 225.918C207.892 226.586 206.58 226.819 207.122 228.568L204.518 227.508L202.955 230.687L196.706 229.628L195.665 226.978L196.706 222.209L190.978 225.388C188.801 225.038 186.249 227.063 184.728 227.508C183.895 227.752 180.927 225.526 179 226.448C179.083 224.985 181.875 223.618 182.125 222.739C182.312 222.082 181.937 221.276 182.125 220.619C182.468 219.4 188.843 215.277 187.332 213.73C185.218 214.006 181.416 210.296 182.125 207.901L184.728 204.192C187.78 204.478 190.853 202.22 194.092 203.132C194.665 203.291 195.592 205.082 196.175 205.252C200.06 206.386 203.622 209.236 207.622 207.371L209.705 209.491C213.985 208.071 218.922 209.078 223.234 208.431C225.557 208.081 230.067 205.972 232.598 205.252C236.306 204.202 244.159 203.301 246.127 202.072C248.658 200.493 250.148 200.376 250.814 203.662L248.731 206.841L249.773 210.551H249.804Z" fill="#B0C4E7"/>
</svg>
