<svg width="227" height="31" viewBox="0 0 227 31" fill="none" xmlns="http://www.w3.org/2000/svg">
<g clip-path="url(#clip0_15_3109)">
<path d="M227 20.2214H4.43103V23.8377H227V20.2214Z" fill="#AAC2FF"/>
<path d="M227 27.3844H4.43103V31.0006H227V27.3844Z" fill="#AAC2FF"/>
<path d="M9.10535 4.01986V16.734H5.05864V4.01986H0.000270844V0.328491H14.1638V4.01986H9.10535Z" fill="#AAC2FF"/>
<path d="M30.0283 10.4794H19.4056V16.734H15.3589V0.328491H19.4056V6.58313H30.0283V0.328491H34.0751V16.734H30.0283V10.4794Z" fill="#AAC2FF"/>
<path d="M35.9381 16.734V0.328491H47.451V4.01986H39.9849V6.78826H46.0347V10.2743H39.9849V13.0427H47.451V16.734H35.9381Z" fill="#AAC2FF"/>
<path d="M58.3174 6.23473H57.7104V16.7343H53.6636V0.328735H58.3983L67.8273 10.5823H68.4343V0.328735H72.481V16.7343H67.9081L58.3174 6.23473Z" fill="#AAC2FF"/>
<path d="M74.3456 16.7343V0.328735H85.8586V4.0201H78.3924V6.7885H84.4422V10.2745H78.3924V13.0429H85.8586V16.7343H74.3456Z" fill="#AAC2FF"/>
<path d="M86.2232 0.328491H90.7353L94.2358 13.3913H95.1867L98.3837 0.328491H105.992L109.654 13.3913H110.605L113.64 0.328491H118.233L113.761 16.734H106.558L102.835 3.67121H101.702L98.3027 16.734H91.0996L86.2232 0.328491Z" fill="#AAC2FF"/>
<path d="M122.869 5.33255C122.869 1.86684 125.601 0.000618362 129.121 0.000618362C131.048 -0.0187368 132.953 0.416526 134.686 1.27199L133.917 4.75823C132.397 3.93745 130.702 3.5079 128.98 3.50739C127.725 3.50739 126.876 3.99956 126.876 4.86067C126.876 7.52663 135.171 6.0296 135.171 11.5461C135.171 14.4786 133.107 17.0623 128.798 17.0623C126.877 17.1191 124.967 16.7626 123.193 16.0164L123.355 12.2637C125.088 13.1187 126.991 13.5606 128.919 13.5556C130.7 13.5556 131.145 12.9199 131.145 12.1612C131.145 9.70042 122.869 11.1359 122.869 5.33255Z" fill="#AAC2FF"/>
<path d="M148.588 16.5078C147.234 16.9684 145.804 17.1566 144.379 17.0615C143.267 17.0781 142.162 16.8683 141.131 16.4444C140.1 16.0205 139.164 15.3912 138.377 14.5938C137.59 13.7964 136.969 12.8471 136.551 11.8021C136.133 10.7571 135.926 9.63769 135.942 8.51012C135.942 3.85496 139.483 0.0202788 144.744 0.0202788C146.129 -0.0417889 147.515 0.117368 148.851 0.491911L148.467 4.22411C147.306 3.83366 146.087 3.65325 144.865 3.69111C144.225 3.6279 143.579 3.70912 142.974 3.92895C142.369 4.14877 141.819 4.50173 141.365 4.96247C140.91 5.42322 140.562 5.9803 140.345 6.59369C140.128 7.20708 140.048 7.86156 140.11 8.51009C140.11 11.5658 142.113 13.3087 144.966 13.3087C146.201 13.3621 147.433 13.1597 148.588 12.7139L148.588 16.5078Z" fill="#AAC2FF"/>
<path d="M165.12 10.4796H154.497V16.7343H150.45V0.328735H154.497V6.58338H165.12V0.328735H169.167V16.7343H165.12V10.4796Z" fill="#AAC2FF"/>
<path d="M179.811 0C185.376 0 189.382 2.91192 189.382 8.44873C189.382 14.2112 185.052 17.0618 179.791 17.0618C174.49 17.0618 170.16 14.1704 170.16 8.46926C170.16 3.09651 174.105 0 179.811 0ZM179.751 13.6166C182.927 13.6166 185.214 11.976 185.214 8.36682C185.214 5.08572 182.927 3.44516 179.771 3.44516C176.614 3.44516 174.328 5.04464 174.328 8.48984C174.328 11.9555 176.614 13.6166 179.751 13.6166Z" fill="#AAC2FF"/>
<path d="M199.744 0C205.308 0 209.314 2.91192 209.314 8.44873C209.314 14.2112 204.984 17.0618 199.724 17.0618C194.422 17.0618 190.092 14.1704 190.092 8.46926C190.092 3.09651 194.038 0 199.744 0ZM199.683 13.6166C202.86 13.6166 205.146 11.976 205.146 8.36682C205.146 5.08572 202.86 3.44516 199.703 3.44516C196.547 3.44516 194.261 5.04464 194.261 8.48984C194.261 11.9555 196.547 13.6166 199.683 13.6166Z" fill="#AAC2FF"/>
<path d="M210.428 0.328735H214.475V12.838H227V16.7343H210.428V0.328735Z" fill="#AAC2FF"/>
</g>
<defs>
<clipPath id="clip0_15_3109">
<rect width="227" height="31" fill="white"/>
</clipPath>
</defs>
</svg>
