<svg width="75" height="95" viewBox="0 0 75 95" fill="none" xmlns="http://www.w3.org/2000/svg">
<path d="M65.8042 35.9872L65.8855 36.619C67.1981 37.1879 68.0818 38.5918 68.9913 39.6225C71.3094 42.2381 73.4501 45.0458 74.6739 48.3634C74.33 49.4458 74.4669 50.5542 74.2857 51.5738C73.6942 54.8692 69.8453 60.0081 66.991 61.4711L66.9097 62.1028C55.9178 69.2958 46.3309 78.5244 37.9419 88.7393C36.5887 90.387 34.9028 91.9091 33.6975 93.7489C33.398 93.9595 33.1355 93.5457 32.7694 93.5273C32.5883 93.5162 31.1094 93.6344 30.9282 93.6603C29.9374 93.8007 29.331 94.5359 28.1368 93.7489C27.5194 93.3389 27.2309 91.0964 26.876 90.2097C24.3397 83.8923 16.949 73.8362 12.0723 69.185C10.0499 67.2528 8.2197 64.0756 6.53746 61.7925C5.59097 60.5106 4.04923 59.0697 3.21735 57.725C2.64428 56.7977 0.625623 52.1317 0.485128 51.2081C0.42967 50.8497 0.821581 50.5837 0.766122 50.218C0.0451605 45.552 1.70148 42.1494 4.69624 38.5289C7.38783 35.2742 10.9225 32.6068 13.7361 29.8545C19.33 24.3831 20.6536 16.1225 22.6686 8.85934C22.8571 8.18696 23.53 7.30398 23.6631 6.52816C23.8036 5.70431 23.5596 4.69944 23.7518 4.03075C23.8627 3.65023 24.4765 3.39904 24.6539 3.08501C25.0274 2.41264 24.6835 1.64787 25.8925 1.53704L25.9591 0.894223C26.6024 1.00505 27.1053 0.510043 27.6007 0.469405C28.2292 0.413989 28.6618 0.883154 29.013 0.816655C29.2422 0.772323 29.4752 0.480488 29.8228 0.469405C30.2073 0.458321 32.6179 1.81782 32.9691 2.14293C37.3282 6.21045 37.4095 14.1423 41.4506 19.1482C44.2863 22.6616 49.492 25.2956 53.4222 27.4938C57.9883 30.0466 61.9813 32.3704 65.8079 35.9946L65.8042 35.9872Z" fill="#AAC2FF"/>
</svg>
