<svg width="106" height="130" viewBox="0 0 106 130" fill="none" xmlns="http://www.w3.org/2000/svg">
<path d="M60.1691 110.725C60.3946 112.059 63.578 116.592 64.591 117.752C65.8777 119.222 68.0516 120.519 69.0424 121.793C69.7671 122.724 69.4159 122.809 69.5601 123.467C69.6193 123.744 70.0445 124.08 70.0408 124.387C70.0408 124.527 69.8374 124.671 69.8448 124.812C69.8892 125.732 70.1368 125.946 69.2273 126.796C67.3602 128.539 65.8555 127.645 63.6667 127.885C61.478 128.126 60.9973 129.507 60.3133 129.707C58.7568 130.161 54.6454 129.633 52.9631 129.363C48.0051 128.569 41.1542 126.98 36.3959 125.24C35.9226 125.067 34.3993 124.623 34.3217 124.546C34.2588 124.483 34.3032 124.088 34.1183 123.84C33.6414 123.205 33.0092 123.197 32.865 123.049C32.7393 122.92 32.6284 122.048 32.1182 121.804C32.7356 119.835 35.1683 120.024 36.5252 119.226C37.5531 118.62 40.7031 115.624 41.498 114.597C43.5056 112.007 45.639 107.104 46.445 104.031C46.5522 103.628 46.4856 103.196 46.4856 102.789C44.685 101.955 43.831 101.94 41.9269 102.472C39.7936 103.07 40.533 102.512 38.9136 102.509C38.7251 102.509 35.7082 103.1 35.2682 103.2C32.1884 103.905 30.4618 105.294 26.7127 105.368C26.1767 105.379 24.0286 105.006 23.829 105.039C19.9912 105.708 17.7026 104.663 13.9943 104.234L13.9573 103.55C12.4488 103.791 11.7981 102.623 10.8405 101.67C8.31901 99.1505 6.24117 96.4979 4.1892 93.5461C3.03936 91.8947 0.9171 89.2273 0.355119 87.406C-0.0367881 86.1315 -0.0884628 84.3286 0.351509 83.0688C1.07617 80.9889 0.776637 80.9778 1.03544 78.9533C1.13157 78.2181 1.57894 76.5039 1.77489 75.6283C3.27967 68.8898 7.37626 63.7176 11.0735 58.1354L11.7131 58.0615C18.8266 45.5486 34.5251 34.3214 38.6808 20.1941C38.9322 19.337 38.8989 17.8075 39.1392 16.9578C39.3278 16.2965 40.1633 16.2706 39.4941 14.7411C40.8325 13.9801 40.0857 11.6305 40.2336 11.0542C40.3186 10.729 40.8769 10.6034 40.9656 9.91259C41.0802 9.02594 41.0876 5.20963 40.9656 4.35254C40.8732 3.70232 40.2632 3.42525 40.2706 3.26269C40.2817 2.9302 41.1948 0.58796 41.5165 0.4956C42.06 0.229604 42.7329 0.772677 42.988 0.776371C43.4206 0.780066 43.9641 -0.113975 45.162 0.159409C46.6483 0.495599 46.2601 1.22709 46.5374 2.10635C46.6372 2.41668 47.0328 2.60879 47.1844 2.93759C50.9519 11.1465 55.6437 19.1707 59.8474 27.2097C62.8126 32.8843 65.3452 38.9652 69.2162 44.0635C81.6204 60.4075 106.396 69.7542 105.993 93.3651C105.808 94.9573 103.87 100.063 102.983 101.434C102.414 102.309 101.345 103.085 100.624 103.89C99.5151 105.128 98.1619 106.558 96.9308 107.951C96.7496 108.157 96.805 108.549 96.7126 108.641C96.5203 108.837 92.3018 110.64 91.7065 110.84C87.1959 112.351 81.9607 111.988 77.3465 111.275C71.3792 110.352 66.9683 108.593 62.0177 105.18C61.5001 104.825 60.7976 104.271 60.1728 104.252C60.4057 106.229 59.8548 108.833 60.1728 110.714L60.1691 110.725Z" fill="#AAC2FF"/>
</svg>
