<svg width="120" height="167" viewBox="0 0 120 167" fill="none" xmlns="http://www.w3.org/2000/svg">
<path d="M68.2011 126.931L67.5467 126.99L64.5039 133.577L63.8495 133.637C59.7345 141.775 54.5102 149.393 50.325 157.613C49.238 159.748 48.5133 162.741 46.9974 164.629C46.4281 165.338 45.6295 165.914 44.72 166.062C44.4279 166.11 44.1949 165.852 44.0471 165.866C42.8713 165.97 41.9138 166.487 40.9303 165.164C40.7233 163.653 41.1151 161.836 40.9118 160.38C40.7639 159.338 40.5236 159.579 40.5384 158.182C40.6604 143.286 39.5142 126.384 37.5843 111.271C35.292 93.3123 26.0711 77.3415 15.9591 62.7228C10.783 55.2417 5.21494 48.5918 2.53444 39.5812C1.45855 35.9644 0.401136 30.4856 1.05555 26.7728C1.23302 25.7642 2.10926 23.784 2.53444 22.7126C3.30347 20.7731 4.06879 18.3791 5.11511 16.4285C7.72166 11.5667 13.0457 7.46221 17.9815 5.28622C22.3738 3.35036 27.0546 2.20139 31.8573 2.5228C40.054 3.07326 47.674 6.59402 54.1997 11.5814C56.6805 13.4767 58.0522 15.3275 59.9341 17.6661C61.0285 19.0256 62.1783 20.3556 63.2542 21.7299C63.8457 21.2053 64.2968 20.5292 64.722 19.8753C68.312 14.3596 70.7559 9.49042 76.605 5.90317C79.8585 3.9082 84.0105 1.7285 87.582 0.627577C87.9629 0.509357 88.5211 0.0253906 88.7466 0.0253906C88.8945 0.0253906 89.157 0.313567 89.4824 0.317262C92.5474 0.343122 99.8606 0.254459 102.371 1.47361C104.597 2.55237 111.414 6.99671 112.768 8.81065C114.121 10.6246 116.372 14.5 117.215 16.5504C118.517 19.7017 118.89 23.0266 118.931 26.2814C118.946 27.5486 119.153 28.801 119.241 30.0386C120.535 48.3517 106.087 69.14 96.1374 83.7697C86.4359 98.0375 76.2722 111.784 68.1937 126.942L68.2011 126.931ZM53.8003 50.9488C50.8573 49.2753 49.6299 45.6843 47.9994 42.8877C47.8034 42.5515 47.663 42.0638 47.1934 42.0343C46.2913 45.071 44.9306 48.2224 43.4481 51.0338C42.912 52.046 41.0782 53.908 41.8213 54.9757C42.838 55.1826 42.9268 56.1357 43.1782 56.3906C43.2891 56.5015 43.6773 56.4424 43.8622 56.6197C46.2617 58.9324 48.1806 62.575 49.4117 65.6709L50.7095 63.8274L51.6781 61.2746L52.3251 61.2081C53.0942 58.4263 54.9872 56.1247 56.4254 53.6531L56.4328 53.3132L53.8891 51.5842L53.8077 50.9525L53.8003 50.9488ZM52.3621 97.4242C52.6172 95.1817 53.2864 93.0463 54.1997 90.9886C53.2051 90.3236 52.5655 88.8606 51.8187 88.1808C51.5709 87.9555 49.9737 86.8619 49.7741 87.0836C49.7482 87.889 49.1307 88.7202 49.0272 89.4776C48.8978 90.4344 48.7573 91.5021 48.6575 92.4331C48.5725 93.2089 48.7093 94.0438 48.6797 94.8233C49.5744 94.5684 51.7928 98.0375 52.3584 97.4242H52.3621Z" fill="#AAC2FF"/>
</svg>
