<svg width="119" height="115" viewBox="0 0 119 115" fill="none" xmlns="http://www.w3.org/2000/svg">
<path d="M66.8942 11.0795H67.6336L67.2639 12.5572L68.0033 12.3725L68.7428 14.4044L67.2639 14.7738L67.079 13.2961L66.1547 14.7738C66.8054 14.6556 67.3674 15.1396 67.2639 15.8822C67.4229 16.0632 68.2362 15.2283 68.0033 14.7738C68.4026 15.0029 69.375 15.3132 69.4822 15.6974C69.5673 16.0115 69.3935 16.4991 69.4822 16.8058C69.5377 16.9979 70.0516 17.1235 69.8519 17.7294H70.5914C69.937 19.2921 71.5564 20.0014 71.7006 20.5001C72.1368 22.0222 72.4511 23.6219 73.1795 24.9297C73.9078 26.2375 74.5881 27.7892 74.6584 29.1783H75.3978C76.1225 31.5242 77.679 33.7556 78.7216 36.0092C79.3243 37.3059 79.6607 38.3773 80.7551 39.1494C82.9291 40.6826 84.3044 43.1467 86.667 45.0567C92.956 50.1476 99.0158 55.9182 107.357 57.9834C108.399 58.242 109.638 58.4784 110.681 58.7223C111.01 58.7998 111.479 58.6373 111.79 58.7223C112.23 58.8442 113.42 60.333 113.084 60.9389C114.271 61.2936 115.945 62.4019 116.962 63.1555C117.417 63.4917 117.801 64.0754 118.256 64.4486L117.886 65.1874C118.537 65.5421 118.286 66.68 117.702 66.8499C117.458 66.9201 117.151 66.7649 116.962 66.8499C115.605 67.4669 115.687 67.3043 114.374 67.5888C114.241 67.6183 113.457 68.2612 113.265 68.3277C108.817 69.8756 104.71 70.6108 100.332 72.0221C97.8437 72.8237 94.6419 74.2276 92.2018 75.347C90.6341 76.0674 88.7892 76.7989 87.399 77.5636C87.1439 77.704 86.9147 78.1584 86.6596 78.3025C86.4858 78.3986 86.1752 78.2323 86.105 78.3025C86.0347 78.3727 86.2011 78.683 86.105 78.8567C85.9645 79.1116 85.4173 79.4108 85.3655 79.5955C85.2657 79.965 85.2842 82.0966 85.3655 82.5511C85.3914 82.6877 85.6983 82.7727 85.7353 82.9205C86.2492 84.9893 86.5893 87.1764 87.2142 89.1972C88.2013 92.404 90.05 95.4777 90.538 98.4295C90.8486 100.288 91.1887 102.619 91.6472 104.337C92.1056 106.055 92.7379 108.5 93.1261 110.614C93.3886 112.04 92.7526 113.152 91.4623 113.754C90.7857 113.953 89.8836 113.972 89.244 114.123C89.0998 114.157 89.0184 114.459 88.8742 114.493C87.5543 114.799 87.388 113.854 87.0256 113.754C86.4969 113.61 85.8203 113.769 85.177 113.384C84.7222 113.115 84.0309 112.42 83.5132 112.091L83.883 111.168L82.9587 111.537C82.7775 111.123 82.319 111.231 82.2192 111.168C81.7275 110.857 81.2505 110.074 80.7403 109.69C78.0155 107.64 75.0022 105.301 72.2403 103.044C71.4306 102.379 70.5248 101.573 70.2069 101.012C69.8039 100.303 65.1823 97.4246 64.1101 96.7633C62.1876 95.5774 59.141 93.4901 57.0891 93.069C56.2905 92.9064 55.3662 92.9286 54.501 92.6995C54.3494 92.6589 54.2533 92.3301 54.1313 92.3301C54.0093 92.3301 53.902 92.6774 53.7616 92.6995C53.3031 92.7771 52.7078 92.6072 52.2827 92.6995C51.9832 92.766 49.5652 94.2068 48.9588 94.5467C48.3525 94.8866 48.5226 95.5848 47.6648 94.9161V95.655L45.4465 96.3939V97.1328C40.2149 99.4048 35.4898 103.103 30.4837 105.996C28.0805 106.487 25.7698 107.603 23.4627 108.212C23.0856 108.312 22.6604 108.031 22.3535 108.582L20.32 106.919C20.3977 106.347 20.2054 105.593 20.32 105.072C20.3496 104.935 20.6269 104.861 20.6898 104.703C21.1445 103.557 21.7139 103.018 22.1687 102.117C22.9857 100.487 23.4627 98.6142 24.0173 96.9481C25.7587 91.7094 27.9844 86.4154 29.1897 81.0696C29.5446 79.4995 30.1695 76.9541 30.2989 75.5317C30.5355 72.9346 30.1251 70.0419 30.2989 67.4078L29.0048 66.4842C27.3892 66.3401 25.9546 65.4941 24.5719 65.0064C16.5932 62.2061 9.00647 60.3367 1.29403 56.513L0 54.8506L0.369724 54.1117L0 53.0034C0.340146 52.8113 1.53805 51.7436 1.66376 51.7103C2.85057 51.3852 4.20007 51.1118 5.35731 50.602C6.92494 49.9112 9.13588 48.4297 10.5297 48.0159C17.4732 45.9693 24.0358 42.5482 30.4837 39.1531C31.7889 38.4659 32.0477 38.429 33.4378 38.0448C33.6005 38.0004 35.719 35.8614 35.841 35.6434C36.3623 34.7087 36.5361 35.2444 36.9502 33.7962C37.0131 33.5746 38.2221 32.3185 38.4291 31.949C38.5252 31.7754 38.3589 31.4651 38.4291 31.3949C38.492 31.3321 38.784 31.4762 38.9837 31.3949C39.1316 31.3321 39.2055 31.0846 39.3534 31.0254C39.7564 30.8629 40.4071 31.1067 40.8323 30.2866L41.7566 31.0254L41.0172 29.7324L41.3869 28.9935L41.0172 28.6241C41.6235 27.9295 42.3593 27.3643 43.2355 27.3311L43.6052 25.4839H44.3447C43.9676 23.9544 45.3393 23.5 45.8236 22.3436C46.2266 21.3831 46.4632 21.9668 46.9328 21.2353C47.4282 20.4632 47.1287 19.6578 47.3025 19.0187C47.4023 18.6529 49.103 16.972 49.1511 16.8021C49.665 14.9401 50.4488 11.9144 51.924 11.0795C52.3233 10.8541 54.9743 4.53301 55.8024 3.14023C56.2276 2.42721 57.3257 1.60336 57.2813 0.738877H60.6051V0H62.2689C62.9751 0.365744 62.6904 0.930985 62.8235 1.29303C63.4779 3.04787 64.2617 4.87659 65.0418 6.46148C65.7739 7.95031 67.0346 9.37634 66.8905 11.0758L66.8942 11.0795Z" fill="#AAC2FF"/>
</svg>
