<svg width="126" height="111" viewBox="0 0 126 111" fill="none" xmlns="http://www.w3.org/2000/svg">
<path d="M52.9065 0.756128V1.49501C52.9693 1.55781 53.254 1.42112 53.461 1.49501C53.7753 1.60953 53.7161 2.17847 54.2005 1.49501C54.3817 1.77947 55.0619 2.20802 55.1248 2.4186C55.391 3.34959 55.4391 4.07369 55.8642 5.00467C56.685 6.80753 57.7461 7.97126 58.4523 10.1731C58.7037 10.96 58.9403 11.6028 59.1918 12.3897C59.8351 14.4032 60.3416 15.6925 60.6707 17.9276C60.6891 18.0495 61.3288 18.5741 61.0404 19.2207C61.6726 19.3721 61.7724 18.9805 62.1495 18.6665C65.5584 15.8292 66.442 10.0512 70.6495 8.1412V7.40232C72.3872 6.6265 73.8217 4.76084 75.6371 3.70794C75.8737 3.57125 77.7297 2.62548 77.8554 2.59962C78.4322 2.47401 81.2975 2.48879 81.9187 2.59962C82.0555 2.62548 82.1331 2.92103 82.2884 2.96906C82.5065 3.03925 82.7949 2.90256 83.0278 2.96906C83.5233 3.11314 84.2147 4.73867 85.0613 4.44682V5.18569H85.8008C85.7231 6.22012 87.1133 6.77797 87.6494 7.58704C88.4665 8.82097 88.5959 10.9046 90.2375 11.0967C91.2357 14.0116 92.001 17.4806 93.931 20.1443L93.5613 20.5137C94.127 20.8092 93.8164 21.3191 93.931 21.622C94.3525 22.7266 96.3675 25.1575 96.5191 25.6858C97.5543 29.3026 100.575 32.997 102.431 36.2111H103.17V36.95C104.45 37.0239 105.263 38.8415 106.309 39.5361C106.686 39.7873 109.097 41.3353 109.263 41.3833C109.992 41.5902 110.709 41.7232 111.482 42.1222C112.946 42.8795 114.033 43.4152 115.545 43.9693C116.721 44.3979 119.083 45.2845 119.978 45.8165C120.559 46.1601 121.816 47.926 122.196 48.0332C122.699 48.1736 124.448 47.8854 124.6 48.0332C124.326 48.7314 125.25 49.0085 125.339 49.3262C125.409 49.5811 125.395 50.501 125.339 50.804C125.313 50.9407 125.014 51.0219 124.969 51.1734C124.903 51.4135 125.051 51.7128 124.969 51.9123C124.755 52.4517 123.871 53.5452 123.306 53.9442C122.444 54.5501 122.352 54.9121 121.457 55.4219C121.021 55.6695 120.425 55.9281 119.978 56.1608C117.187 57.6201 114.639 59.7887 111.663 60.2246C111.737 60.9857 110.946 61.7763 110.184 61.7024V62.4413C108.727 62.5484 107.847 64.4362 106.491 64.6579V65.3968C106.42 65.467 106.11 65.3007 105.936 65.3968C105.078 65.8734 103.877 67.1849 103.533 67.7981C102.76 69.1798 100.479 70.7684 99.4695 72.2277C97.436 75.1758 95.8092 77.6769 94.297 80.7211C93.6278 82.0658 92.8255 83.2333 92.0787 84.4155C91.8605 84.7591 92.4891 85.3243 91.3392 84.6002L91.709 85.8932C91.5537 86.1371 91.0213 86.4511 90.9695 86.6321C89.376 92.1774 83.6194 98.2916 80.9944 103.065H79.8852C79.2715 105.078 77.6336 106.552 75.6371 107.129C75.3967 107.199 74.857 108.03 74.5279 108.237L73.6036 107.498L73.2339 108.976L72.6793 108.606L71.9398 109.345L71.5701 108.976C69.2741 110.188 65.9614 110.317 63.0702 110.084C62.3455 110.025 61.0663 109.825 60.1161 109.715C59.0106 109.585 56.9401 108.95 55.6831 108.606C51.5089 107.465 44.8132 103.6 42.5653 99.7435H41.8258C41.1677 98.1586 39.0011 95.8533 38.502 94.0209C38.0953 92.5283 37.5 91.2021 37.0231 89.5913C36.9603 89.3844 36.3391 89.0556 36.2837 88.8524C35.9139 87.5077 35.8807 85.1618 35.5442 83.684C34.8343 80.5844 32.6345 75.8888 31.4809 72.6045C30.9818 71.1822 30.2239 69.8264 29.6323 68.5407C24.068 56.4638 16.5478 43.478 3.21555 39.1814L0.812347 38.0731C1.0083 37.4635 0.523962 37.3712 0.442623 37.1495C0.313219 36.7949 0.335403 36.6028 0.0728988 36.0412C-0.333797 35.1767 1.08964 35.5794 1.18207 35.4871V34.7482L1.73666 35.1176C3.65183 33.5586 5.78883 34.194 8.01826 33.6399C10.6211 32.9933 13.5419 32.2286 16.1485 31.0538C17.8344 30.2927 19.1728 28.8778 20.7664 28.4677V27.3594C21.3135 27.352 22.3414 26.9161 22.615 26.4358C24.2344 23.5874 29.2441 19.9632 31.4809 16.4647C31.9098 15.796 32.3905 16.2134 32.9598 14.9869C33.8361 13.1028 35.4592 10.1288 37.208 8.89483C40.2841 6.72253 42.288 3.27567 46.0739 1.14031C46.7431 0.763486 47.9743 -0.163805 48.662 0.0319977C48.8173 0.0763303 48.9097 0.401436 49.0317 0.401436C49.1131 0.401436 49.5346 -0.13425 50.5106 0.0319977C50.7546 0.072636 50.7731 0.745014 51.2501 0.0319977L52.9138 0.770875L52.9065 0.756128ZM38.4946 41.3759L40.3432 38.2357C41.0975 35.6163 42.2658 32.151 43.667 29.7423C44.0811 29.0292 45.3899 28.017 45.1459 27.1562C45.1274 27.0934 44.2845 26.2511 44.2216 26.2326C43.9776 26.1624 43.667 26.3176 43.4822 26.2326C42.617 25.8299 41.811 24.8841 40.8941 25.8632L40.3395 25.4937V26.602H39.6001C39.8811 27.5737 38.2432 29.2989 38.1212 29.7423C37.7478 31.1092 37.8735 33.1707 37.5666 34.3565L37.3817 35.8343L38.1212 35.0954L38.306 39.525L38.4909 41.3722L38.4946 41.3759Z" fill="#AAC2FF"/>
</svg>
