<svg width="567" height="418" viewBox="0 0 567 418" fill="none" xmlns="http://www.w3.org/2000/svg">
<path d="M355.45 92.1622L358.892 102.015C364.645 101.117 370.099 97.0636 376.168 98.858C378.662 99.5891 379.111 104.141 383.75 100.353C382.985 103.36 386.61 104.69 387.009 106.384C387.292 107.614 385.247 110.206 387.092 112.665C385.729 115.639 382.753 114.858 380.475 116.104C372.543 120.457 369.5 128.216 365.543 136.059C364.628 137.87 362.966 138.784 363.864 141.857C367.023 142.605 367.605 139.797 369.932 138.8C388.772 130.709 400.61 123.431 418.086 113.861C421.445 112.017 433.218 106.65 436.161 106.9C444.524 107.631 450.793 114.459 446.719 122.534C443.975 127.967 426.234 134.43 422.077 141.176C421.695 142.555 423.574 144.15 423.756 145.994C423.889 147.357 417.654 161.944 416.257 163.506C414.861 165.068 412.782 164.802 412.266 165.317C408.043 169.488 403.703 176.765 397.967 181.75C392.23 186.734 384.133 190.921 378.812 196.653C383.517 196.171 389.537 194.443 393.827 192.566C399.364 190.14 412.267 182.763 417.022 179.207C423.756 174.156 432.419 161.213 438.572 157.575C443.909 154.401 451.325 157.01 456.895 158.472C458.126 165.982 451.275 171.216 450.261 178.393C455.798 177.646 457.327 172.229 462.981 170.352C466.955 169.022 470.896 170.102 474.388 168.773L480.058 174.356C481.986 180.968 475.053 181.467 475.186 186.684L479.426 188.296L480.174 191.669C493.559 185.92 508.508 167.926 521.643 182.613C523.306 188.362 511.634 193.895 508.424 197.484C507.044 199.012 505.814 199.328 508.408 200.84C511.002 202.352 515.541 202.667 518.501 204.03L520.114 208.283C530.706 201.77 536.891 212.703 546.668 212.304L552.471 221.542L559.122 218.136C565.008 219.548 568.35 222.506 566.438 228.869C566.056 230.132 564.426 230.697 564.094 231.494C562.681 234.767 563.296 236.346 559.937 238.971C552.238 244.986 544.573 247.694 536.109 251.698C523.339 257.746 511.018 267.183 497.417 256.549L492.728 258.161L491.813 254.772L489.269 258.145L440.301 249.787C439.004 253.243 442.03 256.616 442.064 258.925C442.113 261.683 437.408 263.876 438.472 267.947L435.579 268.246C433.799 273.015 426.782 277.6 422.193 279.91L421.827 282.751C406.862 294.93 389.088 306.759 372.144 317.027C358.06 325.567 343.162 332.961 327.283 336.134C327.15 339.673 326.534 339.291 329.777 339.457C334.915 339.707 341.35 339.856 346.438 339.491C371.13 337.713 431.621 323.142 451.924 308.72C455.532 306.161 460.121 300.479 463.596 297.073C467.288 293.468 472.01 289.198 476.05 284.612C476.882 283.665 476.633 281.887 477.015 281.488C477.53 280.957 489.835 276.454 490.932 276.304C494.507 275.806 497.699 276.421 500.759 278.182L502.671 279.594C503.819 281.272 503.752 285.044 503.469 287.171C502.921 291.274 497.5 300.197 494.358 302.971C488.97 307.723 488.056 310.448 483.55 315.416C477.813 321.729 455.648 336.367 447.567 339.241C436.626 343.129 425.802 344.741 414.511 349.376C412.749 350.108 410.637 350.224 410.388 352.733L419.666 357.601C422.941 358.797 425.452 355.158 428.013 354.577C430.141 354.095 436.875 355.474 439.253 356.272C441.465 357.003 442.047 360.292 445.273 359.379L447.052 347.865L457.56 344.508C459.439 346.785 462.499 347.582 464.444 349.36C468.053 352.65 468.668 359.744 475.884 357.584L485.162 350.24C486.11 347.117 479.409 344.425 476.898 344.392V337.829C482.718 336.65 488.288 333.991 494.341 334.44C500.859 334.922 506.446 333.759 512.598 336.218L525.784 332.828L531.637 340.438C531.387 345.821 527.563 346.369 525.019 348.546C523.423 349.908 523.34 352.251 521.777 353.613C519.05 356.022 515.325 355.391 512.781 356.255C511.151 356.82 510.403 358.88 509.089 359.262C505.016 360.475 491.996 352.799 490.151 354.394L493.31 360.226L488.355 369.215C487.64 369.929 475.103 372.538 472.758 372.72C468.468 373.053 463.164 370.544 461.219 371.109C457.394 372.239 451.624 377.738 444.441 377.738C442.479 377.738 440.534 375.246 437.807 375.993C433.051 377.273 438.306 380.729 438.688 383.404C439.287 387.541 437.857 390.432 436.925 394.203C432.369 393.506 428.944 396.496 424.471 395.965C420.963 395.549 414.827 390.831 411.219 390.831C408.908 390.831 402.673 393.738 399.613 394.27C397.801 394.585 395.672 394.054 393.777 394.237C394.525 404.571 390.617 410.785 379.61 409.223C375.303 408.608 371.313 403.956 365.543 405.867C367.189 411.483 361.785 417.198 356.398 417.597C354.053 417.78 352.573 416.368 351.409 416.334C350.445 416.301 349.131 417.929 346.654 417.348C343.844 416.7 336.877 411.915 333.967 410.004C317.456 399.088 300.412 383.52 288.839 367.852L286.013 367.487L282.321 359.478C277.4 358.781 273.509 357.003 268.288 357.667C260.722 358.631 244.044 361.323 236.911 359.196C234.982 358.614 230.177 353.43 228.265 352.899C221.514 350.971 212.768 351.154 205.485 349.094C173.61 340.106 142.732 327.545 110.424 321.198C97.5212 318.672 78.1832 313.505 65.5628 314.485C63.5342 314.651 61.9546 316.263 58.945 316.28C50.0492 316.28 46.1085 310.049 41.5359 303.636C41.0038 301.941 43.5312 299.665 44.8115 298.751C52.9092 292.969 70.8006 290.759 80.5776 291.241C106.101 296.442 131.375 299.432 156.683 306.527C177.833 312.442 199.133 321.214 220.965 325.318C223.758 325.85 226.236 326.664 229.279 326.149C226.884 322.377 222.745 319.686 219.286 317.027C214.93 313.688 213.832 313.206 210.19 309.567C186.446 285.924 168.555 245.434 166.094 212.404C165.595 205.658 166.526 198.414 166.127 191.619L118.023 201.72L117.841 204.778C97.7709 210.144 75.1404 223.021 58.1303 235.648C51.6455 240.466 35.4005 258.078 30.5286 259.54C27.8017 260.354 24.0936 259.241 20.9344 259.922C18.274 260.487 16.2452 263.777 13.2855 262.996L13.1028 259.906L6.75093 257.845L6.43511 254.971L0 250.468L5.05488 238.954L1.69606 233.97L39.8731 200.773C69.4704 182.58 103.241 163.623 137.328 155.348C181.657 144.582 230.31 155.747 273.076 168.64C275.188 169.272 278.214 172.129 279.877 171.664C287.476 163.789 299.016 159.27 307.396 152.59C313.049 148.088 318.171 141.807 322.594 137.056C323.458 136.125 328.563 136.424 327.366 131.855L312.434 141.01C306.548 145.081 300.096 150.945 292.581 151.942L292.315 154.883L271.497 163.207C262.568 165.301 256.399 155.066 251.011 149.301L252.674 145.247C259.724 142.422 267.24 140.677 274.24 137.737C278.513 135.942 292.963 128.682 295.839 126.106C299.697 122.667 296.421 124.412 302.441 121.089C310.771 116.486 322.544 106.999 330.675 101.134C333.086 99.3897 342.281 90.7665 343.278 90.4841C347.668 89.2047 351.21 92.0625 355.483 92.1289L355.45 92.1622ZM385.48 371.042L377.881 359.528C374.854 358.482 358.859 360.808 358.892 363.566L363.88 374.365C370.631 371.89 378.064 370.627 385.48 371.042Z" fill="#AAC2FF"/>
<path d="M426.999 28.8929L418.719 28.9259L420.382 33.9104L391.516 30.3714C386.228 25.9519 380.093 29.4908 373.857 30.5874L375.52 27.2644C368.104 27.63 360.439 26.7495 353.056 27.2314C330.293 28.6935 310.057 34.276 288.025 40.2906C261.87 47.435 235.199 54.3633 208.794 60.76C197.039 63.6012 182.223 70.7123 171.199 67.1401L171 70.2637C166.61 70.7289 162.187 74.0686 158.412 75.1652C123.694 85.3334 89.208 95.3023 55.3375 108.328C50.5154 110.173 37.4127 111.435 41.5364 116.902C34.6692 116.569 30.1132 121.57 24.0774 123.68L15.0486 121.803C14.45 116.187 7.28364 115.091 8.11503 108.744L5.22142 108.445L1.77979 99.6721C4.52335 88.806 23.2625 80.432 33.1394 76.1786C94.8613 49.6281 152.426 21.4825 218.521 9.02137C271.796 -1.03061 325.504 -2.21013 379.71 5.63208C389.022 6.97788 398.632 9.35367 407.894 10.6829C416.175 11.8791 430.391 11.1813 428.745 23.1606C428.463 25.2707 426.75 26.6499 426.999 28.8929Z" fill="#AAC2FF"/>
</svg>
