<svg width="95" height="182" viewBox="0 0 95 182" fill="none" xmlns="http://www.w3.org/2000/svg">
<path d="M65.7776 19.9424V21.0507C66.5688 20.9879 66.8683 21.8708 67.4413 21.0507C68.1105 21.0507 68.1105 23.5444 67.9959 24.1909C67.9774 24.2981 67.4155 24.564 67.6262 25.2992C67.7297 25.665 68.081 25.4987 67.6262 26.4075C69.0127 27.3164 68.8833 28.8902 68.7354 30.4714C68.5357 32.5846 67.7371 35.0709 67.2565 37.1176C66.6206 39.8292 66.6353 42.4855 65.7776 45.2416C64.857 48.1971 63.5555 51.3484 63.1895 54.4738C63.0305 55.8444 63.3374 57.3702 62.8198 58.1682C63.489 63.8169 63.5703 69.6799 64.6684 75.155C65.4818 79.2151 66.1695 83.8885 66.517 88.0816C66.6279 89.4338 66.2323 91.0408 66.8868 92.1455C67.3711 92.9582 68.1179 92.877 68.7354 93.9927C69.4157 95.2229 69.8889 96.4383 70.2143 97.687C70.6025 99.187 70.4435 100.218 70.584 101.751C70.5951 101.884 70.9426 101.987 70.9537 102.12C71.0351 103.203 71.0425 104.736 70.9537 105.815C70.9426 105.948 70.5988 106.051 70.584 106.184C70.3289 108.597 70.1921 110.906 69.8445 113.2C69.1532 117.785 68.7797 122.875 67.6262 127.231C67.1825 128.905 67.3304 131.664 66.8868 133.877C66.6686 134.974 66.6945 135.802 66.517 136.833C66.4985 136.94 65.8811 137.387 66.1473 137.941L65.4079 137.756C65.3043 138.34 65.7073 138.477 65.7776 139.049C65.9698 140.66 65.1749 142.171 65.0381 143.479C64.8533 145.285 64.3135 148.684 65.4079 149.756L65.0381 150.495L65.4079 151.049H64.6684C64.624 151.344 64.7461 151.743 64.6684 151.972C64.5057 152.467 63.5814 153.07 64.2987 153.45L63.5592 154.558C64.0953 160.178 62.7643 166.768 61.7106 172.284C61.6034 172.835 61.3668 173.592 61.3409 173.762C61.2263 174.552 61.4962 175.624 61.3409 176.348C61.315 176.466 60.5904 177.593 60.4166 177.641C60.0506 177.744 59.6106 177.456 59.3074 178.01C58.0688 176.954 55.869 178.265 54.8744 177.641L54.3198 178.749C53.377 178.365 52.9851 179.392 52.6561 179.488C49.7094 180.334 46.7257 181.169 43.7901 181.705C42.7697 181.89 42.0413 181.335 41.9415 181.335C41.8195 181.335 41.7123 181.679 41.5718 181.705C40.6992 181.853 40.2445 181.646 39.7232 180.966L39.5383 181.705L39.1686 180.966L37.8745 181.705C36.9465 181.912 36.5842 181.369 36.3956 181.335C34.5544 181.007 33.1309 181.284 31.2232 180.966C24.1836 179.795 16.0793 176.366 8.86967 172.842V172.103C8.57389 172.062 8.18938 172.173 7.94536 172.103C6.45907 171.674 3.20551 167.016 1.4789 166.196V165.457C0.547191 165.601 0.229229 164.607 0 163.794C0.624833 163.454 0.232926 162.815 0.369724 162.317C0.414091 162.15 1.04262 161.404 1.10917 161.208C1.94475 158.759 1.98172 156.339 2.95779 154.008H3.69724C3.90059 153.413 3.3534 153.232 3.32751 153.084C3.04283 151.514 4.0115 150.532 4.43669 149.39C4.79902 148.415 4.61785 147.31 4.80641 146.434C5.09479 145.097 6.30009 143.228 6.65503 141.635C6.89905 140.531 7.60152 137.79 7.39448 136.836C7.37229 136.74 6.82141 135.939 6.65503 135.728C6.65503 135.34 8.41491 133.452 8.50365 133.142C8.79573 132.122 8.68112 131.07 8.87337 130.187C8.89925 130.061 9.58324 129.204 9.61282 129.078C10.0787 126.928 10.2598 124.59 10.722 122.432C11.04 120.936 12.016 119.114 12.2009 118.002C12.8479 114.112 13.787 110.81 14.789 106.923C15.2326 105.194 16.0238 103.443 16.6376 101.755C17.1811 100.251 17.695 99.6229 18.1165 98.0602C18.6119 96.2241 20.0612 93.5309 21.0706 91.7834C21.2148 91.5359 21.6178 91.3068 21.81 91.0445L20.7008 89.1974C21.3146 88.6912 21.7213 87.7861 22.5495 87.9043V87.1654C23.7326 86.9955 27.5185 83.9439 28.0916 82.9169C28.4576 82.2593 28.9272 81.9859 29.5705 81.0697C31.5448 78.2472 32.9794 76.4148 34.0035 72.9458C34.1625 72.4101 35.4935 70.489 35.8521 69.6208C36.7653 67.3968 36.9465 65.0656 37.7007 62.6052C38.8506 58.8369 39.9671 54.5846 41.0245 50.7868C41.7788 48.0825 41.679 45.7587 42.1337 43.0323C42.5885 40.3058 42.9545 36.8294 42.5034 33.8C42.1818 31.624 43.3242 29.1303 42.8732 26.4149C42.851 26.2746 42.5034 26.1674 42.5034 26.0455C42.5034 25.9236 42.8473 25.8165 42.8732 25.6761C42.9582 25.1773 42.7179 24.2094 43.4277 24.0136C43.742 23.9286 44.2301 24.1023 44.5369 24.0136C44.7292 23.9582 44.8549 23.4447 45.4612 23.6442C45.3947 23.1232 45.5648 22.4583 45.4612 21.9817C45.3725 21.5716 44.389 20.6332 44.3521 20.5039C44.0082 19.2959 44.1376 18.3833 43.9823 17.179C43.9638 17.0423 43.6311 16.9462 43.6126 16.8095C43.5535 16.3477 43.5128 14.9513 43.6126 14.5929C43.6792 14.3491 44.5295 13.8282 44.7218 13.4846C44.8179 13.311 44.6515 13.0006 44.7218 12.9304C44.7846 12.8676 45.0767 13.0154 45.2764 12.9304C45.7163 12.7457 46.6517 11.8517 46.7553 11.8221C46.9882 11.7556 47.2729 11.8923 47.4947 11.8221C48.016 11.6559 48.3857 11.2384 49.3433 11.4527C50.5228 11.7187 50.8555 11.2569 51.9314 11.4527C53.7172 11.7778 53.4731 11.2901 54.8855 11.0832C57.5734 10.6916 58.2241 12.0586 60.058 12.561C61.4149 12.9304 62.879 13.8503 63.7515 14.0388C64.1878 14.1311 64.8311 13.9279 65.2304 14.0388C65.3672 14.0757 67.0568 15.7899 67.2639 16.0707C67.3193 16.1482 67.2047 16.3514 67.2639 16.4401C67.434 16.6913 67.9553 17.009 68.0033 17.179C68.1364 17.6556 67.9146 18.4683 68.0033 19.0262C67.4635 19.6099 66.6464 20.0458 65.785 19.9498L65.7776 19.9424ZM64.2987 105.615C63.1488 105.685 61.9325 105.519 60.79 105.615C60.1245 105.671 58.1243 106.299 57.4662 106.354C55.0149 106.554 53.4214 106.214 51.1846 105.615C51.033 105.575 50.9369 105.246 50.8149 105.246L50.4451 105.615C48.5448 104.008 45.7681 104.008 43.424 103.029C40.3627 101.751 37.2423 99.102 34.1884 98.2301C33.5413 98.0454 31.2417 95.8916 30.1251 95.644C29.6962 95.5517 29.0973 95.7253 28.6462 95.644C28.5057 95.6182 28.4207 95.3078 28.2765 95.2746C27.7736 95.1564 27.0823 95.2044 26.7976 95.644C26.5536 95.0751 25.4481 95.7142 25.1338 96.1982C25.0303 96.3607 24.875 97.107 24.7641 97.3065C24.5386 97.7203 23.3554 99.2756 23.2852 99.5231C22.8822 100.92 22.25 102.279 21.8063 103.587C19.6952 109.812 18.2607 116.248 16.6339 122.79C15.6985 126.555 15.2659 130.423 14.4155 134.239C14.3823 134.383 14.0717 134.468 14.0458 134.609C13.909 135.351 13.9534 136.227 14.6004 136.641C17.5915 138.551 19.1332 141.255 22.7306 142.917C25.2632 144.092 28.2802 145.43 30.8608 146.242C34.8095 147.487 38.6842 148.485 42.6846 149.198C44.9806 149.604 47.8756 149.634 49.7057 149.937C52.0682 150.328 54.0204 149.56 55.9873 149.198C56.4347 149.117 57.0743 149.305 57.4662 149.198C58.1983 148.995 57.9136 147.997 58.0208 147.535C59.3444 141.842 60.1911 135.942 61.3446 130.179C61.718 128.313 61.8031 126.137 62.084 124.272C62.8309 119.318 63.4631 114.567 63.9327 109.502C63.9438 109.369 64.2913 109.265 64.3024 109.132C64.3948 107.98 64.2395 106.779 64.3024 105.623L64.2987 105.615Z" fill="#AAC2FF"/>
<path d="M23.2851 29.1744C23.3554 29.2446 23.189 29.555 23.2851 29.7286C23.5292 30.1645 24.1799 30.6559 24.3943 31.2064L24.0246 32.8688C25.2632 32.7765 25.2742 34.0399 25.5035 34.9007C25.5774 35.1815 26.206 35.1593 25.5035 35.6396L25.8732 36.3785C25.2188 37.6124 24.7234 41.1738 25.1338 42.6553C25.1818 42.8326 25.7179 43.1503 25.8732 43.3942L25.1338 44.6872H25.8732C26.1505 45.4113 24.8528 46.4125 24.764 46.7191C24.6309 47.1846 23.8508 48.9247 23.6549 49.1205C23.5846 49.1907 23.274 49.0244 23.1003 49.1205C21.2295 50.1623 20.6416 53.2028 19.5916 54.8431L18.4824 59.2726L17.5581 60.1962L17.1884 59.8268L16.4489 60.1962C16.1088 59.5719 15.4692 59.9635 14.97 59.8268C14.8 59.7788 14.482 59.2579 14.2306 59.0879C14.1419 59.0288 13.9385 59.1433 13.8609 59.0879C13.6243 58.9143 12.2304 57.54 12.1971 57.4254C11.9975 56.705 12.3228 55.3381 12.1971 54.4699C12.0566 53.4983 11.0843 51.4849 10.7182 50.4061C10.5703 49.9739 10.5038 48.9505 10.3485 48.5589C10.2893 48.4148 10.049 48.3409 9.97878 48.1895C9.92332 48.075 10.0268 47.8939 9.97878 47.82C9.43528 46.974 8.90658 47.4284 8.31502 47.2659C8.17452 47.2289 8.09688 46.9519 7.94529 46.8964C6.49598 46.3718 5.16128 45.5997 4.06689 44.4951L4.43662 43.2021C4.94314 43.1245 5.6678 43.3203 6.10038 43.2021C6.30372 43.1466 6.63648 42.5186 6.83982 42.4632C7.09863 42.393 8.58862 42.1011 8.68844 42.0937C8.76609 42.0864 9.25782 42.7107 10.1673 42.4632C10.2635 42.4373 10.9031 41.909 10.5371 41.7243L8.87331 40.4313C9.19866 40.1837 9.47965 39.7072 9.79761 39.5077C11.1175 38.6727 13.8313 37.2652 14.7852 35.998C15.1697 35.4882 17.669 32.1854 17.7393 31.9342C17.8687 31.4798 18.0129 30.0796 18.6636 29.9023C18.9779 29.8173 19.4585 29.9872 19.7728 29.9023C20.0094 29.8395 20.4346 29.6621 20.8819 29.5328C21.1999 29.4405 21.4365 28.5132 22.3608 28.794C22.5013 28.8383 22.5753 29.1006 22.7305 29.1634C22.9302 29.2447 23.2186 29.1006 23.2851 29.1634V29.1744Z" fill="#AAC2FF"/>
<path d="M93.4883 69.7942H92.7488V70.5331C91.6101 70.4555 91.3032 72.0145 90.9002 72.9344C90.1718 74.5969 90.2051 75.4983 89.791 76.9982C89.7393 77.1866 89.1884 77.4822 89.0516 77.7371C88.9407 77.9403 88.7891 78.6792 88.6819 78.8454C88.131 79.7025 86.482 79.9353 85.5429 79.769C85.4061 79.7432 85.3248 79.4439 85.1732 79.3996C84.9329 79.3331 84.6334 79.4809 84.4337 79.3996C84.2895 79.3405 84.2156 79.1003 84.064 79.0301C83.9494 78.9784 83.7756 79.0782 83.6943 79.0301C83.3837 78.8454 83.0953 78.3467 82.77 78.1065C82.5629 77.4822 82.5592 76.4256 82.4003 75.8899C81.8309 73.9651 79.827 69.0738 78.7067 67.3965C78.0597 66.4286 77.1908 66.3769 77.5975 64.6257C77.6678 64.5555 77.9784 64.7218 78.1521 64.6257C79.2835 63.9977 80.6552 61.866 82.2154 61.6702C83.6277 59.9782 85.8793 58.7184 86.4635 56.6865C86.4894 56.5978 87.5468 55.5449 87.7575 55.3935C87.8352 55.3381 88.0385 55.4526 88.1273 55.3935C88.3787 55.2235 88.6966 54.7026 88.8667 54.6546C89.669 54.4329 90.8817 55.0499 91.4548 54.2852L92.7488 55.2088C92.49 55.7888 93.1001 56.2099 93.1185 56.3171C93.3995 57.8909 92.9411 60.1555 93.1185 61.8549C93.2406 63.0187 94.0798 64.9065 94.2277 65.9188C94.298 66.3917 94.3312 68.1317 94.2277 68.5048C94.139 68.8226 93.2184 69.0996 93.4883 69.7979V69.7942Z" fill="#AAC2FF"/>
<path d="M36.584 0.369439C36.7763 1.51839 37.5712 2.14644 37.3235 3.50967C37.2976 3.64636 36.9981 3.72764 36.9538 3.8791C36.8872 4.11555 37.0314 4.4111 36.9538 4.61798C36.6728 5.38272 35.3011 7.34074 34.5505 7.75821C34.3768 7.85426 34.0662 7.68802 33.996 7.75821C33.9257 7.8284 34.0921 8.13873 33.996 8.31237C33.7519 8.74831 33.1012 9.23966 32.8868 9.79012C32.6797 10.7174 33.2343 11.1164 33.2565 11.2679C33.3194 11.7001 33.3489 13.1409 33.2565 13.4845C33.2306 13.5732 32.0512 14.7517 31.9625 14.7775C31.4671 14.9142 30.8274 14.5226 30.4836 15.147L27.3446 13.4845V11.822H23.836L22.7268 11.4526C22.2794 11.1497 20.4715 9.92681 20.3236 9.42068C20.2201 9.05863 20.5084 8.61531 19.9539 8.31237L20.3236 6.64989C20.9743 6.71639 21.7322 6.55384 22.3571 6.64989C23.1889 6.7792 24.8564 7.6363 25.6809 7.75821C26.7531 7.91707 27.5554 7.61043 28.4538 7.38877C28.2579 6.7792 28.7459 6.68314 28.8235 6.46517C29.2339 5.33469 29.4558 4.2781 29.9327 3.14023C30.2876 2.29791 30.5501 1.35215 31.2267 0.738877C32.2841 0.646517 33.6041 -0.155164 34.5505 0.738877L35.6597 0L36.584 0.369439Z" fill="#AAC2FF"/>
<path d="M43.2354 110.048L47.2987 109.679V111.896H48.7776C48.6926 112.649 48.9033 113.584 48.7776 114.297C48.7517 114.441 48.2045 114.626 48.4079 115.221C47.7978 115.036 47.7387 115.472 47.4836 115.59C46.1895 116.192 45.1025 116.887 43.9749 117.437V118.176C43.0912 118.124 42.2298 119.458 41.7565 120.208C41.2574 120.999 40.6104 122.38 40.2776 123.163C39.5382 124.907 39.2757 127.32 39.5382 129.44C39.5567 129.577 39.882 129.669 39.9079 129.81C39.9893 130.26 39.8192 130.851 39.9079 131.287C40.0891 132.152 41.0097 133.301 41.3868 134.612C41.4423 134.801 42.814 136.648 42.8657 136.829C43.058 137.524 42.7326 138.798 42.8657 139.6C42.1152 139.478 42.008 140.276 41.5717 139.6C41.4534 139.6 41.3572 139.925 41.202 139.969C40.6954 140.113 38.869 139.223 37.8781 139.6L34.5543 138.491L30.6759 133.138L31.0456 132.03C30.4651 131.114 29.7368 129.352 29.5667 128.336C29.4188 127.449 29.9327 126.511 29.0121 125.934L28.0878 126.304C28.0324 125.646 28.1692 124.911 28.0878 124.272C28.0693 124.135 27.7329 124.035 27.7181 123.902C27.6368 123.034 27.5591 120.574 27.7181 119.838C27.744 119.713 28.4317 118.856 28.4575 118.73C28.55 118.298 28.3651 117.685 28.4575 117.252C28.4797 117.145 29.4706 115.531 29.5667 115.405C29.9919 114.84 31.0345 113.85 31.6002 113.373C32.9053 112.28 34.5839 111.238 36.0332 110.418C38.2219 109.18 39.7378 109.151 41.9451 108.571C42.3148 108.475 42.7363 108.755 43.0542 108.201C43.8491 108.785 43.7271 109.302 43.2391 110.048H43.2354Z" fill="#AAC2FF"/>
</svg>
