<svg width="44" height="77" viewBox="0 0 44 77" fill="none" xmlns="http://www.w3.org/2000/svg">
<path d="M27.9851 1.51995C29.8966 1.89308 29.4972 3.74398 29.7856 5.08504C31.5603 13.3568 32.4329 23.0471 35.4055 30.8571C37.0988 35.3051 39.5463 39.8788 41.8016 44.0386C42.4302 45.1987 43.2584 46.3181 43.7908 47.5483C42.7482 48.5606 43.0957 50.2157 41.3876 50.6516C38.5148 50.0309 35.716 49.4177 32.7545 49.5765C32.9172 50.8068 31.8967 51.5161 31.4457 52.5173C28.8946 58.1808 27.0645 64.1989 24.9201 69.9991C24.5577 70.9781 23.8997 72.9103 23.4597 73.7083C23.0197 74.5062 21.9697 75.0382 22.0325 76.1613L21.1082 75.8769C19.718 76.9445 18.021 75.9286 16.8675 74.8461C17.5736 73.8043 16.9007 73.3684 16.8527 72.6627C16.5273 67.5682 16.7529 62.6473 15.6918 57.5749L13.3662 49.9275L7.24355 47.1863C4.69615 45.6346 2.02305 44.5078 0.0339355 42.1988L0.252105 40.3664C1.62008 40.5216 3.11748 38.3862 3.78299 38.172C4.1601 38.05 4.60005 38.2274 5.04741 37.9577C8.4082 35.959 10.7929 31.6957 12.7451 28.2932C15.3812 23.6974 19.9251 15.2705 20.561 10.2535C20.7126 9.0565 20.2542 8.16615 20.9714 6.97287C21.5445 6.01972 22.7905 5.77219 23.3487 4.89293C23.504 4.6491 23.2083 4.47915 23.3044 4.15405C23.774 2.62827 26.6577 1.63817 27.937 0.829102L27.9814 1.51627L27.9851 1.51995Z" fill="#AAC2FF"/>
</svg>
