<svg width="103" height="126" viewBox="0 0 103 126" fill="none" xmlns="http://www.w3.org/2000/svg">
<path d="M73.3112 22.1962H74.0506C73.8658 22.8058 74.302 22.8649 74.4204 23.1198C78.4319 31.7499 84.048 40.7458 89.568 48.2306C91.2428 50.5026 93.5979 53.5209 94.7404 55.9851C96.223 59.1881 100.053 62.5833 101.022 65.9562C101.114 66.274 102.412 67.12 102.501 67.434C102.612 67.833 102.575 69.876 102.501 70.3895C102.486 70.4966 101.85 71.0139 102.131 71.6825C101.225 71.568 100.789 72.6579 100.098 73.1603C100.024 73.2157 99.8167 73.1012 99.728 73.1603C99.1142 73.5741 99.2695 74.1615 98.4339 73.5297C98.5781 74.2317 97.9533 74.5161 97.5096 75.0075L97.1399 74.6381L96.5853 75.1922L96.955 75.7464C95.9309 76.2008 94.3078 77.2426 93.4464 77.963C92.6995 78.5837 87.4642 83.6413 87.3496 84.055C87.1204 84.8863 87.7193 85.385 87.7193 86.087C86.8653 85.9909 86.2959 86.763 85.6859 87.1953C83.0312 89.072 80.5134 92.759 77.3707 94.2109V94.9498C75.3964 95.6148 73.7622 98.3191 71.8286 99.0136V99.7525C70.2758 99.7525 70.1427 102.357 68.5048 102.339V103.077C67.5879 102.907 67.6359 103.543 67.3956 104.001C66.9889 104.777 63.8795 107.913 62.7778 108.615C61.676 109.317 61.4246 111.944 60.0048 111.94V112.679H59.2654C58.6479 114.907 56.0155 116.846 54.4627 118.771C53.3461 120.157 52.529 122.196 51.5086 123.57C51.1721 124.025 50.588 124.409 50.2145 124.863L46.8907 125.602L45.227 124.863L44.4875 123.201L44.8572 122.647C44.0217 122.709 43.1306 121.062 42.6389 120.245C40.1765 116.17 38.0099 111.6 35.6178 107.319C33.4586 103.454 31.281 99.4754 28.9665 95.5002C24.9365 88.5807 19.6347 82.496 14.9244 76.1121H14.185C13.342 73.9583 11.1902 72.7022 9.38224 70.7589C6.96055 68.1581 4.54254 65.5203 1.80658 63.1892C1.21502 62.6867 0.723289 62.0476 0.142822 61.5267V59.1253H1.62172V58.3864C2.99709 58.3754 3.57018 56.1846 4.94555 56.1698V55.4309C7.49665 54.681 9.70759 51.212 11.412 50.2625C12.7948 49.4941 16.4587 45.4044 18.0634 43.9857C18.825 43.3134 19.4942 42.1348 20.4666 42.1385V40.2913H21.5757C21.5831 39.7446 22.0194 38.7175 22.5 38.4442C23.3541 37.9565 23.2469 37.3728 23.9789 36.9664C24.1527 36.8703 24.4633 37.0366 24.5335 36.9664C24.6888 36.8112 24.5261 35.4517 26.0124 35.8581C26.0272 34.7609 28.5376 31.6058 29.5211 31.0591C30.1016 30.7377 29.8169 31.2438 30.4454 30.1355C31.1627 28.8646 32.5417 27.9854 33.0335 26.8105C33.6287 25.3956 37.3999 22.6396 38.5756 20.5338C39.0674 19.6545 39.6663 19.9353 39.6848 18.8713H40.4242C40.5204 17.3751 42.9125 16.6768 43.0123 15.1769H43.7518C45.9109 11.9887 49.9114 8.96665 52.6178 5.39049C53.287 4.50384 54.7695 3.64304 55.7567 3.35858C56.5553 3.12952 56.2041 1.92146 56.3113 1.32666C56.3372 1.17889 56.8844 0.997864 56.681 0.403068L57.975 0.0336295L59.4539 0.403068C61.0512 -0.768052 62.5818 0.831617 63.7021 2.06554C66.6746 8.72652 70.627 15.3358 73.3075 22.1926L73.3112 22.1962ZM40.7977 49.8931C40.2653 48.7515 39.829 47.5287 39.3188 46.3834C39.2116 46.1433 38.5387 45.0904 38.3945 45.0904C37.3777 46.1506 36.6789 47.4511 35.4404 48.4153C34.5419 49.1135 32.6527 50.4657 31.562 50.6319C31.159 51.9582 29.0885 53.2254 28.2382 54.511C28.1346 54.6662 27.9757 55.4051 27.8684 55.6194C27.7982 55.7597 27.5948 55.8447 27.4987 55.9888C27.4396 56.1957 27.7464 56.7498 27.8684 57.0971C28.2012 58.0355 29.0516 58.7965 28.9776 59.8679C30.6192 60.8211 32.6896 62.9268 33.4106 64.6669H34.15V65.5905L35.0744 67.253L36.3684 64.1127C38.4056 61.9035 39.9769 60.0674 42.0954 58.3901C42.9236 57.7325 42.7757 57.8064 43.3894 57.0971C44.8018 55.4642 45.4229 55.9629 44.1289 53.7722C43.3636 52.4754 41.9808 51.2821 41.5408 49.8931H40.8014H40.7977ZM79.9625 68.727C80.1548 68.0251 79.5336 67.8884 79.2231 67.434C77.0676 64.2679 74.4093 61.0095 72.202 57.8323C70.6566 55.6046 70.0022 55.0024 69.6139 52.2944C69.5437 51.7957 69.3995 51.478 68.8745 51.3708L67.7653 54.511C66.3863 55.3903 65.9019 57.4666 64.4415 57.6513L63.3323 61.3457L61.8534 61.7151C61.9089 62.2471 61.7721 62.8714 61.8534 63.3776C62.0309 64.4711 62.9811 66.2592 63.3323 67.4414C64.4859 71.3279 64.8593 75.159 65.5507 79.2597C65.5914 79.4962 66.2458 80.3274 65.9204 81.1069L66.6599 81.6611L67.3993 80.9222C70.3238 76.5887 74.0876 72.1591 78.6685 69.4733C79.1085 69.2147 79.2453 68.5238 79.9625 68.7344V68.727Z" fill="#AAC2FF"/>
</svg>
