<svg width="114" height="186" viewBox="0 0 114 186" fill="none" xmlns="http://www.w3.org/2000/svg">
<path d="M91.6398 71.6827H92.3792C92.4421 71.7455 92.2979 72.0373 92.3792 72.2368C93.0891 73.9399 94.1317 76.0051 95.3333 77.4053L94.9636 77.7747C95.6734 78.4803 96.0099 80.2462 97.1819 80.176C97.0118 81.6058 98.4353 82.6328 98.6608 83.8704L99.4003 83.501L100.14 85.7176H100.879L102.913 89.7815L103.467 89.412C103.53 89.4896 103.386 89.7667 103.467 89.9662C104.395 92.1976 106.717 94.1187 107.9 96.2429C108.388 97.1148 108.61 96.7269 109.009 97.3512C110.141 99.1172 111.272 101.012 112.333 102.889L111.963 104.367C112.836 105.505 113.294 106.188 113.073 107.692C113.05 107.829 112.729 107.921 112.703 108.061C112.622 108.512 112.799 109.114 112.703 109.539C112.485 110.514 109.871 112.583 109.009 113.603C108.947 113.677 109.069 113.902 109.009 113.972C106.965 116.337 104.965 118.609 103.097 120.988C100.587 124.187 97.7217 126.36 95.7067 129.666H94.9673C92.1389 135.256 86.4414 139.519 83.1435 144.99C80.8179 148.855 78.522 152.176 75.7527 155.516H75.0133C74.7545 157.193 73.0057 158.294 72.0592 159.764C66.8646 167.799 59.1817 174.036 53.5841 182.104H52.8446C52.8742 183.224 51.5395 183.826 50.8112 184.321C50.5597 184.491 50.2455 185.012 50.0717 185.06C49.7094 185.163 49.2657 184.875 48.9625 185.429C48.1639 184.797 47.2581 185.307 46.5593 184.136C46.5113 184.055 46.6111 183.881 46.5593 183.767C46.4854 183.608 46.2192 183.53 46.1896 183.397C46.075 182.876 46.2746 182.123 46.1896 181.55C45.7755 178.801 45.2246 175.883 44.7107 173.057C44.2596 170.574 43.2022 167.061 42.4924 164.563C41.8232 162.206 40.6216 159.772 39.9043 157.178C39.8488 156.975 39.2203 156.642 39.1648 156.439C38.0076 152.239 35.6968 148.234 33.6227 144.251C31.4968 140.165 29.6999 136.312 27.7108 132.064C26.4242 129.315 25.278 126.481 23.6475 123.57C21.6769 120.053 19.4549 116.403 17.3659 113.23C16.168 111.412 15.3435 109.118 14.0421 107.322C13.177 106.129 11.4429 104.903 11.454 103.443C9.98254 102.922 9.01756 100.998 7.57564 99.7489C6.62175 98.925 1.7414 93.6051 1.29403 93.4721C1.05371 93.4019 0.665503 93.5128 0.369724 93.4721L0 92.5485L0.369724 90.5166C1.37907 90.7752 1.46411 90.1694 2.03348 89.7778C2.17767 89.678 2.9467 89.6817 2.95779 89.0389L1.84862 88.8542C2.32187 88.082 2.79511 87.406 3.51238 86.8222C5.33142 85.3371 8.68111 83.9185 9.60912 81.6538H10.3486C12.2896 78.7315 15.8648 76.0716 17.3696 72.791H18.1091V72.0521H18.8485C21.0188 67.6632 25.1338 63.8875 27.3485 59.1254H28.0879C27.9955 57.8657 29.5113 57.2967 29.5668 56.1699H30.3063C32.1808 53.0962 34.4287 48.3305 37.3273 46.1988C39.5753 40.9306 43.6533 35.9432 46.9328 30.8745C48.7259 28.1037 50.3305 24.6827 52.1052 21.6422C53.499 19.2593 55.1776 16.9799 56.5382 14.6266C58.4977 11.2388 59.8768 8.43108 62.0803 5.3943C62.9159 4.24535 63.0046 3.90916 63.5592 2.80823C63.9437 2.04719 64.5353 1.40806 65.223 0.776318L67.4413 0.0374407C68.0181 0.115023 68.7649 -0.0770852 69.2899 0.0374407C69.7003 0.126106 70.4028 1.15684 70.7688 0.406879L71.3234 0.961037C71.5674 1.8403 70.9722 2.3021 70.9537 2.43879C70.6246 4.69606 72.2551 10.4556 72.8023 12.7794C73.1166 14.1167 73.2275 15.5021 73.5418 16.8432C74.6916 21.7604 75.9857 26.7996 77.2353 31.6133C80.7292 45.0461 86.6226 58.4124 91.6472 71.679L91.6398 71.6827ZM82.4041 109.351C82.3967 109.007 82.6259 108.298 82.7738 108.058C83.1361 107.463 84.1898 106.55 84.6224 105.841C84.8479 104.234 83.0659 103.31 82.7738 101.777C73.0611 87.4392 68.9905 71.3982 65.0381 55.2463C64.2691 52.1024 63.1673 49.1839 62.084 46.0141C61.352 43.8713 60.5903 41.7027 59.8657 39.7373C59.6771 39.2201 59.9877 38.3223 58.7565 38.4443C59.1817 39.4417 57.7472 40.4799 57.6473 40.8456C57.3737 41.832 57.4329 42.0574 56.9079 43.0622C53.0332 50.4658 48.0567 58.4161 43.2355 64.8517C38.6694 70.9475 34.4583 76.9656 30.3026 82.9468C29.8885 83.5416 29.308 84.2362 28.8237 84.794L29.1934 85.1635L28.8237 85.9023C29.2304 86.4861 29.5816 87.1326 29.9329 87.7495C32.0588 91.4956 35.4343 95.057 37.3236 99.0137H38.0631C39.9043 103.558 42.9952 107.633 45.0841 112.121C46.9771 116.189 48.9367 120.545 50.2566 124.679C50.5154 125.484 50.9627 126.031 50.996 126.156C51.1587 126.744 51.1624 127.553 51.3657 128.373C52.4047 132.57 54.013 136.549 55.0593 140.561C55.3551 141.695 55.4992 143.121 55.7987 144.255C55.8579 144.473 56.4457 144.872 56.1684 145.548C56.5308 145.434 57.0891 144.924 57.2776 144.625C59.7917 140.624 61.5036 136.224 63.9289 132.437C69.1088 124.357 76.1077 117.179 81.6646 109.358H82.4041V109.351Z" fill="#AAC2FF"/>
</svg>
