<svg width="123" height="115" viewBox="0 0 123 115" fill="none" xmlns="http://www.w3.org/2000/svg">
<path d="M116.28 11.3872L116.912 11.4684C117.13 12.562 118.243 13.3748 118.764 14.2466C121.456 18.7131 123.282 26.4972 122.883 31.5622C122.14 40.9312 118.975 50.0674 114.427 58.1913C110.009 66.0825 105.732 74.7828 98.5294 80.5387L98.448 81.1704L84.4872 91.6181L84.4058 92.2499C75.8208 98.2348 68.0308 107.903 58.9615 113.179C58.2257 113.607 56.8873 113.751 56.1368 114.427L53.8112 113.692C53.5782 111.298 50.9274 111.512 49.3376 110.596C48.82 110.297 47.4927 109.24 46.7569 108.742C43.6549 106.64 42.4238 104.844 39.9355 102.635C34.6965 97.9947 29.4723 92.4937 24.3997 87.4952C22.3441 85.4707 20.4585 82.892 18.4915 80.4906C13.7406 74.6941 8.59398 68.3915 5.69165 61.5274C4.89305 59.6395 3.76543 57.9734 2.96313 56.1299C-2.30913 44.0271 1.75775 30.2138 8.52 19.5592C9.4554 18.0888 11.463 16.5556 11.2929 14.7602C13.4188 14.9597 14.957 12.7024 16.4655 11.6199C20.6359 8.62748 25.5865 6.29262 30.6813 5.5168C32.1232 5.29883 35.3842 4.75944 36.6006 4.76683C36.9962 4.76683 37.3142 5.1732 37.7098 5.1769C38.0684 5.1769 38.5195 4.80747 39.1739 4.77422C41.0521 4.67817 44.2576 4.95895 46.2134 5.15106C48.9198 5.41705 52.7723 7.14602 55.2717 8.28389C57.7969 9.43284 59.9634 10.2641 61.7233 12.5213L65.5647 10.2752L65.646 9.64344C67.0769 9.04495 68.382 7.68911 69.6724 6.82093C83.4076 -2.42243 105.898 -2.7032 116.28 11.3946V11.3872ZM35.6763 70.8816C36.5932 70.2129 37.2439 68.6317 37.7209 67.5714C38.2607 66.367 39.8764 62.4953 39.7507 61.4535C38.464 58.5645 37.255 55.5129 35.1217 53.1559L29.3947 61.4645C29.5796 61.9596 30.3411 61.9412 30.4632 62.0557C30.6961 62.2774 31.162 64.1208 31.4245 64.6048L35.6763 70.8779V70.8816ZM65.6054 89.3461L66.3301 87.3474L63.2022 81.5916C62.7733 82.1014 61.1281 84.5841 61.5385 84.9165L62.8436 85.2749C63.2762 86.5827 64.2818 87.6504 64.8069 88.8621C65.0176 89.3461 64.7366 89.468 65.6017 89.3498L65.6054 89.3461Z" fill="#AAC2FF"/>
</svg>
