<svg width="90" height="106" viewBox="0 0 90 106" fill="none" xmlns="http://www.w3.org/2000/svg">
<path d="M48.4116 0.329366C47.9717 2.28 49.7981 3.4031 50.8074 4.76632C54.0943 9.19589 57.1298 13.3927 59.9175 18.0181L60.5571 18.092C65.7295 27.3538 72.1406 36.4272 77.7826 45.3898C81.6018 51.4634 85.2177 57.6219 89.0221 63.6992C89.3919 64.9516 88.6154 65.3764 88.2605 66.3924L87.6061 66.4515L87.5654 67.5302C86.9147 67.3381 86.3749 67.9292 85.9128 67.9292C85.4174 67.9292 84.6409 67.2495 83.8793 67.5413L83.894 69.0006L85.5505 70.1163L85.7463 70.6816C85.6576 71.9709 84.9515 72.8058 83.8756 73.6334C81.4946 75.4621 78.8178 76.2859 76.104 77.313C75.3461 77.6011 74.699 78.4435 73.9263 77.8856C72.6248 79.7291 69.5303 81.3399 67.3859 82.6329C58.5236 87.975 51.3621 94.8835 42.9028 100.831L42.8288 101.471C41.2058 101.777 40.3147 103.248 39.1759 104.297L37.1869 105.183C35.9335 104.681 33.789 104.393 33.9924 102.627L31.6225 102.978C31.2565 102.645 30.7647 102.276 30.4874 101.888C28.3726 98.9473 26.598 95.2049 24.8085 92.0536C21.8507 86.8408 18.8374 80.3017 14.7927 75.8426C13.4247 74.3353 13.4913 75.4362 12.5078 72.9573C11.9162 71.4648 9.43166 69.3146 8.31879 67.9108C6.68461 65.8456 4.58088 63.0785 3.14265 60.8951C1.89299 58.9925 0.809674 57.0493 0.347519 54.8031L1.46409 53.2921L1.09807 51.6629C0.524997 52.0397 0.436274 52.0249 0 51.4818C1.24967 50.078 2.85428 48.833 4.07436 47.4291C5.38688 45.9181 5.47197 45.556 5.97109 43.7827C6.49241 41.9171 7.84924 39.8852 9.05824 38.3742C10.5002 36.5676 12.0863 35.4888 13.4949 33.9298C16.1495 30.9965 19.2035 28.1444 22.1834 24.9007C24.5755 22.2962 27.2597 18.8087 29.7443 15.8384C30.4874 14.9481 33.0645 11.2093 33.608 10.8399C34.4805 10.2451 36.4252 10.2562 36.636 8.49765L37.2682 8.41638C37.9078 6.46574 41.0172 4.88085 41.9526 3.29965C42.4073 2.53122 41.9008 1.78496 43.2318 0.88722C43.7753 0.521475 45.0546 0.118788 45.6942 0.00426159C46.0713 -0.0622374 47.6241 0.67664 48.4042 0.333062L48.4116 0.329366ZM33.9998 64.2164C35.0239 64.2238 35.4492 63.0009 36.4474 62.7867C37.161 62.6315 39.3349 62.6278 40.0485 62.7867C40.6401 62.9196 42.8363 64.2718 43.0359 64.2127C44.5185 62.2953 46.5519 61.586 48.896 61.9591C49.5208 61.3385 51.4766 61.9961 51.7354 61.0761C51.8648 60.6107 51.2659 60.2634 50.996 59.9678C48.8997 57.6662 47.1952 55.553 45.2653 53.1406C44.2337 51.8513 42.9841 51.4966 43.6422 49.2984C43.853 48.6039 44.2892 48.2529 44.3447 47.0523C44.4778 44.1226 44.1857 42.4417 43.5978 39.6672C43.3982 38.7251 43.6866 37.3249 42.6809 36.5196L41.2168 40.225C40.1594 42.039 39.42 44.0709 38.3811 45.8848C37.5011 47.4254 36.2958 49.727 34.5101 50.1408C34.0516 50.2442 32.5135 49.9413 32.0107 49.7676C31.6484 49.642 31.4894 49.195 31.1936 49.1063C30.273 48.8256 29.4079 49.5866 28.5834 49.7566C27.7589 49.9265 25.1301 49.8932 24.7604 50.7356C24.4609 51.419 25.352 51.2454 25.6958 51.6444C26.9972 53.1554 27.9216 54.5703 29.7961 55.6713C30.9792 56.3658 33.0274 56.5616 33.8223 57.9248C34.0996 58.4014 34.7577 60.8803 34.7577 61.4419C34.7577 62.4098 34.0516 63.2632 33.9961 64.2127L33.9998 64.2164Z" fill="#AAC2FF"/>
</svg>
