<svg width="113" height="153" viewBox="0 0 113 153" fill="none" xmlns="http://www.w3.org/2000/svg">
<path d="M88.6345 78.9466C88.701 79.0131 88.9894 78.8616 89.1891 78.9466C90.2132 79.3751 91.2337 80.2544 92.1432 80.7938C93.8106 81.7802 95.3893 82.3011 96.9459 83.0104C97.7112 83.3577 97.7852 83.2284 98.4248 83.3798C98.569 83.4131 98.6503 83.716 98.7945 83.7493C100.207 84.0781 100.473 82.9513 101.383 82.2715C101.56 82.1385 103.12 81.1928 103.231 81.1632C103.538 81.0782 104.004 81.2371 104.34 81.1632C104.485 81.13 104.573 80.8122 104.71 80.7938C105.276 80.7125 106.758 80.6977 107.298 80.7938C107.435 80.8196 107.516 81.1189 107.668 81.1632C107.904 81.2297 108.2 81.0856 108.407 81.1632C108.552 81.2149 108.622 81.4624 108.777 81.5326C109.01 81.6361 109.731 81.7986 109.886 81.9021C111.14 82.7296 111.454 84.2369 112.289 85.4117C112.193 86.2245 112.426 87.2331 112.289 87.9978C112.271 88.1013 111.702 88.3857 111.92 89.1061C111.964 89.2576 112.256 89.3352 112.289 89.4756C112.5 90.377 112.012 90.6393 111.92 90.9533C111.849 91.1898 112.001 91.4927 111.92 91.6922C111.861 91.8363 111.62 91.9102 111.55 92.0616C111.498 92.1762 111.598 92.3498 111.55 92.4311C110.84 93.6244 109.261 93.8571 108.411 94.8324H104.348C103.76 94.5517 103.327 94.0418 102.869 93.7241C102.011 93.1256 100.78 92.3092 100.096 91.3228C99.9998 91.1824 99.826 90.3696 99.7262 90.2144C98.8537 88.866 98.3028 90.0667 97.6927 90.3992C93.5185 92.6675 90.5053 95.8742 87.163 99.4467C82.1754 104.778 78.0271 110.43 73.4906 116.064C67.4123 123.619 60.8239 132.305 52.982 139.143C51.8248 140.151 50.5566 141.075 50.2091 142.283C50.0353 142.885 49.148 142.789 49.0999 142.837C49.0592 142.878 49.2034 143.569 48.7302 143.761C48.8596 144.175 49.8061 145.117 49.8394 145.239C49.9244 145.553 49.7543 146.033 49.8394 146.347C49.8948 146.55 50.5234 146.883 50.5788 147.086C51.1075 149.003 49.0223 150.418 47.8059 151.7C46.8187 151.46 45.9425 152.243 45.2178 152.439C44.9072 152.524 44.4377 152.361 44.1086 152.439C43.9645 152.472 43.8831 152.775 43.7389 152.808C42.419 153.115 42.2637 152.177 41.8903 152.07C41.6611 152.003 41.3801 152.136 41.1509 152.07C41.088 152.051 40.245 151.209 40.2265 151.146C40.1563 150.902 40.3116 150.592 40.2265 150.407C40.075 150.078 39.3725 149.328 39.4871 148.929L40.966 145.789C42.0345 145.782 42.6963 144.426 43.5541 143.757C42.7813 143.225 42.6482 142.464 42.8146 141.541C43.1252 139.845 43.5245 137.166 43.1843 135.264C43.0882 134.724 42.6889 132.471 42.8146 131.939C44.1197 126.357 42.5484 120.398 40.5963 115.322C38.6774 110.319 36.8879 104.959 34.3147 100.182C31.8782 95.66 29.5083 91.2119 26.5542 86.8895C23.308 82.1311 20.3798 80.2101 15.285 77.4725C14.723 77.1696 14.638 76.4048 13.4364 76.7336C13.2478 76.7854 12.952 77.3358 12.6969 77.4725C11.9796 77.8567 11.1441 78.2779 10.4786 78.5808C8.71868 79.3825 7.06232 79.4121 4.9364 79.3197L2.71806 78.5808C1.49797 77.1548 0.747432 75.9024 1.0543 73.9665C2.06735 72.6181 1.20959 71.0997 1.79375 69.537C2.01928 68.9348 2.83267 68.1109 2.90292 67.3203C3.25416 67.1245 4.41879 66.068 4.56668 66.0273C4.79961 65.9608 5.08429 66.0975 5.30613 66.0273C5.45771 65.9793 5.53905 65.6837 5.67585 65.6579C6.23044 65.5581 6.9477 65.7428 7.52447 65.6579C7.66127 65.6394 7.7537 65.3143 7.89419 65.2884C9.30284 65.0298 10.6523 65.9645 11.9575 66.3968C12.2828 66.1899 12.8263 65.3586 13.0666 65.2884C19.6033 63.4117 26.7094 57.3862 32.0963 53.4701V52.7312C33.786 52.3618 34.8249 50.0602 35.9747 49.4063C36.4517 49.1329 39.5536 45.1503 40.2228 44.4226C42.2452 42.2133 44.1641 40.8759 46.1347 38.5152C46.1939 38.445 46.0719 38.2197 46.1347 38.1458C48.6526 35.0573 50.1278 33.0254 51.6769 29.283C53.226 25.5406 55.2299 21.0112 57.5888 17.4646C57.8698 17.0435 58.9863 16.2603 59.0677 15.9869C59.6223 14.0547 60.6464 12.8836 61.6557 11.1878C62.4026 9.92805 63.0311 9.06725 62.7649 7.49344C61.9552 7.03165 62.1881 6.52921 62.0255 6.01569C61.9774 5.86422 61.689 5.78664 61.6557 5.64625C61.36 4.37908 62.7353 3.51829 63.3195 2.50602C65.4787 3.2449 66.2107 1.35338 67.3828 1.02827C67.6822 0.946994 68.1407 1.08738 68.4919 1.02827C68.736 0.987632 68.7544 0.315254 69.2314 1.02827C72.0967 0.743802 74.4926 1.78192 76.0676 4.1685C76.16 5.11057 75.9345 6.21888 76.0676 7.12401C76.0861 7.2607 76.404 7.34567 76.4373 7.49344C76.6628 8.45399 75.8568 9.1042 76.0676 10.0795C75.4058 11.343 73.1431 12.6693 73.4795 14.1433C73.816 15.6174 73.2762 16.4339 73.1098 17.8377C73.0137 18.6357 73.2651 19.7108 73.1098 20.4238C72.9545 21.1368 72.1078 22.7365 72.0006 23.7487C71.4793 28.7325 71.2612 33.6202 70.5217 38.5189C70.2814 40.1112 70.4034 41.9104 70.152 43.3179C70.0854 43.6837 69.7416 45.7562 69.7823 45.904C70.6215 48.9519 70.1224 52.7386 70.8914 55.8751C71.0763 56.6325 71.8379 57.8664 72.0006 58.4612C72.0893 58.7789 71.9045 59.2814 72.0006 59.5695C74.2337 66.3044 83.9279 72.655 88.6271 78.4035C88.7232 78.5771 88.5568 78.8875 88.6271 78.9577L88.6345 78.9466Z" fill="#AAC2FF"/>
</svg>
