<svg width="135" height="129" viewBox="0 0 135 129" fill="none" xmlns="http://www.w3.org/2000/svg">
<path d="M132.357 18.993C132.682 19.7134 131.987 20.5631 131.987 20.6555C131.987 20.7626 132.693 22.3032 132.727 22.5027C132.823 23.1233 132.66 23.8844 132.727 24.5346L133.096 23.4263L133.836 23.9804L133.466 26.9359L134.206 26.7512L133.466 28.7831L134.575 29.8914L133.836 30.0762L134.575 30.4456C134.376 31.7977 134.853 33.826 134.575 35.0599C134.121 37.0845 134.302 40.0141 133.836 42.8144C133.259 46.2872 131.662 50.5394 130.512 54.4481H129.773L129.403 57.4036H128.663C128.15 58.3974 128.009 60.1485 127.554 60.9132C127.288 61.3603 125.82 62.7161 125.706 63.1299C125.354 64.4044 126.135 64.7739 124.227 65.7159L124.597 66.0854L123.857 66.8243L124.227 67.5631C123.402 67.9621 123.643 68.7047 123.487 69.0409C122.241 71.723 121.258 74.2093 119.794 76.7954L120.164 77.5343C119.132 78.8051 119.65 80.3531 118.315 81.5981L118.685 83.4453C117.731 86.1311 117.091 89.36 116.836 92.3081C116.747 93.3315 116.899 94.4176 116.836 95.4483H116.097C116.448 96.7709 116.714 98.9358 116.466 100.432C116.274 101.577 115.823 104.041 115.727 105.601C115.549 108.464 116.259 113.532 115.727 115.941C115.194 118.35 115.324 121.745 114.987 124.434C114.832 125.679 115.431 126.762 114.063 127.575C113.982 127.623 113.808 127.523 113.693 127.575C113.534 127.649 113.457 127.915 113.324 127.944C112.898 128.04 111.201 128.025 110.736 127.944C110.599 127.918 110.521 127.623 110.366 127.575C110.148 127.505 109.859 127.641 109.626 127.575C109.467 127.53 107.279 125.779 107.593 125.358C105.404 125.739 103.899 124.881 102.236 123.88C101.788 123.611 101.293 123.363 100.942 122.957C100.716 122.233 102.616 121.656 101.681 121.11L102.42 120.925L102.051 119.447H102.79C102.225 118.379 102.062 116.71 103.16 115.937C102.136 114.892 103.341 113.27 103.53 112.243C103.618 111.748 103.47 111.109 103.53 110.581H104.269C103.933 110.034 103.785 109.598 103.899 108.918C104.04 108.094 104.339 106.797 104.639 105.593C105.29 102.981 105.489 101.407 105.748 98.5775C105.944 96.4569 106.491 94.1184 106.857 91.9313C107.005 91.0409 107.157 89.4228 107.597 88.2369C108.798 84.9969 109.201 81.6166 109.815 78.2658C109.974 77.3865 109.678 76.873 109.815 76.0491C109.941 75.2955 109.922 73.1379 109.815 72.3547C109.748 71.8597 109.641 71.7378 109.26 71.4311C108.95 71.6934 108.506 71.9742 108.151 72.17C103.13 74.9371 98.6493 78.2916 95.4031 83.0648C94.3087 84.6718 93.7726 86.4784 92.8151 88.2332C91.3842 90.8562 89.384 93.2058 87.6426 95.6183C86.1637 97.665 84.8734 99.0651 83.2096 101.156C82.1559 102.479 80.629 104.932 78.7767 105.035V105.774H77.8523C76.9576 106.875 76.4807 108.342 74.7134 107.991V108.73H73.2345C73.4452 109.882 72.1512 109.805 71.5707 110.207C70.8128 110.732 70.2989 111.711 69.3524 112.055L68.4281 111.685V112.424C67.1969 112.635 66.0175 114.201 64.5497 113.902C64.424 113.876 64.1467 113.348 63.9951 113.532V114.641C63.3148 114.36 62.8378 114.984 62.701 115.01C61.8766 115.162 57.5138 115.83 57.1589 115.749C55.0847 115.265 54.4303 115.265 52.3562 115.749C51.1989 116.019 48.7144 114.755 47.1837 115.01C46.5959 115.106 44.4071 115.125 43.8599 115.01C43.6973 114.977 43.5272 114.437 43.1205 114.641L42.9356 113.902C42.2147 113.754 42.7175 114.859 42.5659 115.01H40.7173V114.271C40.0185 113.998 39.7412 114.921 39.4232 115.01C39.0129 115.121 37.375 115.069 36.8352 115.01C35.9368 114.914 34.3876 114.249 33.3265 114.271V113.532C32.3356 113.813 31.5148 113.292 30.9233 113.163C28.7567 112.694 27.178 112.302 25.0114 111.316C24.2683 110.976 23.1887 110.887 23.3476 109.838L22.4233 110.207C21.6876 110.182 20.1495 108.818 19.8353 108.73C14.123 107.1 9.78248 100.983 4.50282 98.7585C4.40669 96.7081 1.38974 95.3744 0.439548 93.7748C0.372998 93.6639 0.487612 93.2243 0.0698242 93.0359V92.297C0.299053 91.7096 1.13093 91.7909 1.179 91.7429C1.24924 91.6727 1.08287 91.3623 1.179 91.1887C1.26773 91.0298 1.93693 90.3649 2.10331 90.2651C2.18464 90.2171 2.35842 90.3168 2.47303 90.2651C2.63201 90.1912 2.70965 89.9252 2.84275 89.8957C4.61003 89.5004 7.70463 90.2836 9.49409 89.8957C9.59022 89.8735 10.3925 89.323 10.6033 89.1568C13.4982 90.0693 16.6593 89.7885 19.839 89.5262C21.7652 89.3674 27.8768 88.5066 29.4444 88.7874C32.6832 89.3637 39.6525 87.7899 43.1168 86.9402C44.6031 86.5781 45.7196 86.1496 47.18 85.4624C47.9454 85.1041 48.9658 84.9415 49.7681 84.7235C52.09 84.0955 54.1567 81.9195 56.0497 80.294C56.8372 79.6179 59.7433 77.416 60.2978 76.4149C60.9523 75.24 64.2576 72.7611 65.1006 71.2464C66.0581 69.5285 69.1158 66.7725 70.6427 64.6002C72.0292 62.6311 73.0053 60.6472 73.9665 58.6929C79.6677 47.1036 89.1511 37.5647 97.2443 27.8595H97.9838C98.8416 26.5148 102.31 22.3623 103.711 21.5828C104.591 21.0914 105.511 19.839 106.665 18.9967C107.696 18.2467 109.305 17.5079 110.358 16.7801C111.024 16.3183 111.83 15.4242 112.577 14.9329L112.947 15.6718L113.501 14.5634L114.425 14.9329C114.884 14.1238 115.39 14.3566 115.904 14.194C117.62 13.6472 119.602 12.8936 121.446 12.7162C122.456 12.6202 123.565 12.7864 124.585 12.7162L123.846 11.2385C124.837 11.0575 125.55 12.1473 126.249 11.2385L127.358 11.9774L127.728 11.6079C128.301 12.3727 129.514 11.7557 130.316 11.9774C130.449 12.0143 131.636 13.0783 131.98 13.2704V15.487C131.252 16.1705 130.616 16.6027 130.871 17.7037C130.904 17.8441 131.192 17.9216 131.24 18.0731C131.37 18.4832 131.093 18.9856 131.795 19.3661L132.35 18.9967L132.357 18.993ZM121.273 33.7669C119.576 33.6671 118.344 34.8272 116.655 34.5058C111.542 36.6965 106.499 38.529 101.877 41.8908C98.1095 44.6321 93.6876 48.2932 90.9775 52.2314H90.2381C84.0748 60.9834 79.017 71.4681 70.469 78.4505C67.3189 81.0255 63.8879 83.1239 60.8635 85.4661C59.0926 86.8367 57.2291 89.0681 55.1365 89.5299V90.2688C53.8979 90.8451 52.5004 91.5618 51.2581 92.116C50.6776 92.3746 50.2303 92.9029 49.7792 93.2243C49.672 93.2982 49.0656 93.2871 48.8549 93.7785V95.0715C50.1563 95.308 50.6333 94.8831 51.6278 94.3326C54.874 92.5335 57.6395 90.653 60.4938 88.4253C64.9342 84.9674 70.029 82.1559 74.3511 78.8236V78.0847C80.8249 71.8006 87.7794 66.1999 94.8596 60.7285C97.1704 58.9404 99.1669 57.7545 100.956 55.3754C101.422 54.7547 101.907 54.1045 102.435 53.5282C106.129 46.0914 112.95 40.3022 119.247 35.6177C119.908 35.1227 120.722 34.3949 121.28 33.7705L121.273 33.7669Z" fill="#AAC2FF"/>
<path d="M89.495 3.11485H90.2344C90.1642 3.63206 90.338 4.30814 90.2344 4.77732C90.142 5.19109 89.3952 5.86717 89.1253 6.25508C86.6999 9.73888 83.2023 12.5725 81.3648 16.5957L81.7345 17.704L81.3648 18.0734L81.7345 18.4429C81.3722 18.6719 80.703 19.662 80.4405 19.7359C79.8489 19.8984 79.0059 19.4219 78.5918 20.1053L76.1886 18.8123C73.327 15.1216 70.5134 13.3446 68.7978 8.84115C68.491 8.03947 67.4705 6.20705 67.3189 5.5162C67.16 4.78102 67.6517 3.78723 66.9492 3.29957C67.2413 2.8156 68.8644 0.665471 69.3524 0.528779C70.2287 0.288644 70.5947 0.842802 70.8313 0.898218C71.1604 0.9758 71.6299 0.813247 71.9405 0.898218C72.1438 0.953633 72.4729 1.57798 72.6799 1.63709C74.6764 2.20972 75.7376 3.85742 77.4827 4.96204C78.0594 5.32779 78.0114 6.05927 78.5918 6.4398H78.9616C79.3535 6.111 79.6751 5.63811 80.0707 5.33148C80.9396 4.6591 84.2634 1.81443 84.8734 1.63709C85.4243 1.47824 86.2377 1.51887 86.7221 0.898218L89.495 2.19125V3.11485Z" fill="#AAC2FF"/>
</svg>
